<svg width="697" height="228" viewBox="0 0 697 228" fill="none" xmlns="http://www.w3.org/2000/svg">
<path d="M2.5 17.2026V18.5026C2.5 20.8026 3.3 22.1026 5 22.1026C6.7 22.1026 7.5 20.9026 7.5 18.1026C7.5 15.3026 6.89999 14.2026 4.39999 12.3026C1.89999 10.3026 0.600006 9.2026 0.600006 5.7026C0.600006 2.7026 1.5 -0.0973937 5 0.00260632C8.3 0.00260632 9.29999 2.2026 9.29999 5.2026V6.30259H7V5.30259C7 3.30259 6.59999 2.00261 4.89999 2.00261C3.19999 2.00261 2.79999 3.5026 2.79999 5.4026C2.79999 7.7026 3.29999 8.5026 5.39999 10.2026C8.59999 12.7026 9.60001 14.0026 9.60001 17.9026C9.60001 21.2026 8.69999 24.2026 4.79999 24.2026C1.09999 24.2026 0 21.8026 0 18.7026V17.4026H2.5V17.2026Z" transform="translate(263.459 182.097)" fill="white"/>
<path d="M9.89999 6V18C9.89999 22.1 8.19999 24.1 4.89999 24.1C1.29999 24.1 0 21.7 0 18V6C0 2.1 1.7 0 5 0C8.5 0 9.89999 2.5 9.89999 6ZM2.29999 5.89999V18.2C2.29999 21 3.3 22.1 5 22.1C6.7 22.1 7.60001 21 7.60001 18.1V5.89999C7.60001 3.29999 6.69999 2 4.89999 2C3.19999 2 2.29999 3.19999 2.29999 5.89999Z" transform="translate(278.459 182)" fill="white"/>
<path d="M-1.2207e-05 3.05176e-06H7.99999V2.09999H2.30001V10.1H7.7V12.2H2.30001V23.6H-1.2207e-05V3.05176e-06Z" transform="translate(294.259 182.3)" fill="white"/>
<path d="M3.80001 2.09999H-1.2207e-05V3.05176e-06H9.90001V2.09999H6.09999V23.6H3.90001V2.09999H3.80001Z" transform="translate(306.259 182.3)" fill="white"/>
<path d="M3.3 23.5L1.2207e-05 3.05176e-06H2.40001C3.20001 5.9 4.39999 16.2 4.69999 19.8C4.99999 16.3 6.69999 5.7 7.59999 3.05176e-06H9.90001C10.7 5.7 12.4 15.7 12.7 19.7H12.8C13 15.8 14.5 5.9 15.2 3.05176e-06H17.5L13.9 23.5H11.4C10.6 17.9 8.99999 7.90001 8.69999 4.30001C8.19999 8.40001 6.7 18 5.8 23.5H3.3Z" transform="translate(320.159 182.3)" fill="white"/>
<path d="M3.5 15.7L2.29999 23.5H0L3.89999 -6.10352e-06H7.10001L11.2 23.5H8.79999L7.5 15.7H3.5ZM7.29999 13.6C6.39999 8.1 5.80001 4.09999 5.60001 1.99999H5.5C5.4 3.79999 4.49999 9.2 3.89999 13.6H7.29999Z" transform="translate(340.459 182.4)" fill="white"/>
<path d="M6.10352e-06 3.05176e-06H3.9C7.4 3.05176e-06 9.10001 1.5 9.10001 5.4V6.5C9.10001 9.6 8.09999 11 6.69999 11.5C8.19999 12 8.9 13.2 8.9 16.3C8.9 18.3 8.90001 22 9.10001 23.6H6.9C6.6 22.1 6.69999 18.1 6.69999 16.5C6.69999 13.4 6.2 12.5 3.9 12.5H2.29999V23.6H6.10352e-06V3.05176e-06V3.05176e-06ZM2.29999 10.5H4.00001C6.30001 10.5 6.9 9.09999 6.9 6.59999V5.5C6.9 3.2 6.29999 1.9 3.79999 1.9H2.29999V10.5V10.5Z" transform="translate(356.559 182.3)" fill="white"/>
<path d="M7.5 12H2.20001V21.5H8.20001L7.89999 23.5H0V3.05176e-06H7.89999V2.09999H2.29999V10H7.60001V12H7.5Z" transform="translate(371.459 182.3)" fill="white"/>
<path d="M3.80001 2.09999H-6.10352e-06V3.05176e-06H9.89999V2.09999H6.1V23.6H3.89999V2.09999H3.80001Z" transform="translate(390.359 182.3)" fill="white"/>
<path d="M-1.2207e-05 3.05176e-06H3.90001C7.40001 3.05176e-06 9.09999 1.5 9.09999 5.4V6.5C9.09999 9.6 8.1 11 6.7 11.5C8.2 12 8.90001 13.2 8.90001 16.3C8.90001 18.3 8.89999 22 9.09999 23.6H6.90001C6.60001 22.1 6.7 18.1 6.7 16.5C6.7 13.4 6.20001 12.5 3.90001 12.5H2.30001V23.6H-1.2207e-05V3.05176e-06V3.05176e-06ZM2.30001 10.5H3.99999C6.29999 10.5 6.90001 9.09999 6.90001 6.59999V5.5C6.90001 3.2 6.30001 1.9 3.80001 1.9H2.30001V10.5V10.5Z" transform="translate(404.759 182.3)" fill="white"/>
<path d="M3.5 15.7L2.29999 23.5H0L3.89999 -6.10352e-06H7.10001L11.2 23.5H8.79999L7.5 15.7H3.5ZM7.29999 13.6C6.39999 8.1 5.80001 4.09999 5.60001 1.99999H5.5C5.4 3.79999 4.49999 9.2 3.89999 13.6H7.29999Z" transform="translate(418.459 182.4)" fill="white"/>
<path d="M2.29999 3.05176e-06V23.5H6.10352e-06V3.05176e-06H2.29999Z" transform="translate(434.559 182.3)" fill="white"/>
<path d="M-1.2207e-05 23.5V3.05176e-06H2.7L6.90001 15C7.40001 16.8 7.70001 18.2 7.90001 19.2H7.99999C7.89999 16 7.80001 12.7 7.80001 8.80001V3.05176e-06H9.90001V23.5H7.30001L2.59999 6.4C2.29999 5.2 2.09999 4.3 1.99999 3.7C2.09999 6.5 2.2 10.4 2.2 14.7V23.5H-1.2207e-05Z" transform="translate(443.259 182.3)" fill="white"/>
<path d="M2.29999 3.05176e-06V23.5H0V3.05176e-06H2.29999Z" transform="translate(459.459 182.3)" fill="white"/>
<path d="M1.2207e-05 23.5V3.05176e-06H2.69999L6.90001 15C7.40001 16.8 7.70001 18.2 7.90001 19.2H8.00001C7.90001 16 7.8 12.7 7.8 8.80001V3.05176e-06H9.90001V23.5H7.3L2.59999 6.4C2.29999 5.2 2.10001 4.3 2.00001 3.7C2.10001 6.5 2.19999 10.4 2.19999 14.7V23.5H1.2207e-05Z" transform="translate(468.159 182.3)" fill="white"/>
<path d="M9.70001 23.8H7.89999C7.79999 23.4 7.80001 22.3 7.80001 21.7C7.20001 23.5 5.90001 24.1 4.30001 24.1C1.10001 24.1 -6.10352e-06 21.7 -6.10352e-06 18V6.10001C-6.10352e-06 2.20001 1.59999 0 4.89999 0C8.79999 0 9.6 2.7 9.6 5.8V6.39999H7.30001V5.8C7.30001 4 7.10001 2 4.80001 2C3.10001 2 2.20001 3.09999 2.20001 5.89999V18.1C2.20001 20.5 2.8 22.1 4.6 22.1C6.9 22.1 7.30001 20 7.30001 16.8V13H4.6V11H9.6V23.8H9.70001Z" transform="translate(483.859 182)" fill="white"/>
<path d="M3.5 15.7L2.29999 23.5H0L3.89999 -6.10352e-06H7.09998L11.2 23.5H8.79999L7.5 15.7H3.5ZM7.20001 13.6C6.30001 8.1 5.7 4.09999 5.5 1.99999H5.39999C5.29999 3.79999 4.39999 9.2 3.79999 13.6H7.20001Z" transform="translate(505.959 182.4)" fill="white"/>
<path d="M-2.44141e-05 23.5V3.05176e-06H2.69999L6.9 15C7.4 16.8 7.7 18.2 7.9 19.2H7.99998C7.89998 16 7.80002 12.7 7.80002 8.80001V3.05176e-06H9.9V23.5H7.30002L2.60001 6.4C2.30001 5.2 2.09998 4.3 1.99998 3.7C2.09998 6.5 2.19999 10.4 2.19999 14.7V23.5H-2.44141e-05Z" transform="translate(522.059 182.3)" fill="white"/>
<path d="M2.44141e-05 3.05176e-06H4.1C9.2 3.05176e-06 9.69998 3.3 9.69998 6.9V16.2C9.69998 19.8 9.09999 23.5 3.89999 23.5H2.44141e-05V3.05176e-06V3.05176e-06ZM2.19998 21.6H3.69998C6.69998 21.6 7.39999 20 7.39999 16.7V6.59999C7.39999 3.69999 6.89998 2 3.69998 2H2.19998V21.6Z" transform="translate(538.359 182.3)" fill="white"/>
<path d="M9.39999 17.2V18C9.39999 21.1 8.79998 24.2 4.69998 24.2C0.699975 24.2 2.44141e-05 21.3 2.44141e-05 17.8V5.8C2.44141e-05 2 1.59998 0 4.69998 0C8.49998 0 9.19998 2.8 9.19998 5.8V6.7H6.89999V5.7C6.89999 3.8 6.6 2 4.6 2C2.7 2 2.19998 3.5 2.19998 5.7V17.9C2.19998 20.4 2.8 22.1 4.6 22.1C6.6 22.1 6.89999 20.4 6.89999 18V17.1H9.39999V17.2Z" transform="translate(560.859 182)" fill="white"/>
<path d="M9.90002 6V18C9.90002 22.1 8.20002 24.1 4.90002 24.1C1.30002 24.1 0 21.7 0 18V6C0 2.1 1.7 0 5 0C8.4 0 9.90002 2.5 9.90002 6ZM2.20001 5.89999V18.2C2.20001 21 3.20002 22.1 4.90002 22.1C6.60002 22.1 7.5 21 7.5 18.1V5.89999C7.5 3.29999 6.59999 2 4.79999 2C3.09999 2 2.20001 3.19999 2.20001 5.89999Z" transform="translate(575.459 182)" fill="white"/>
<path d="M1.2207e-05 23.5V3.05176e-06H2.70002L6.89998 15C7.39998 16.8 7.69998 18.2 7.89998 19.2H8.00001C7.90001 16 7.8 12.7 7.8 8.80001V3.05176e-06H9.89998V23.5H7.3L2.59999 6.4C2.29999 5.2 2.10001 4.3 2.00001 3.7C2.10001 6.5 2.20002 10.4 2.20002 14.7V23.5H1.2207e-05Z" transform="translate(591.159 182.3)" fill="white"/>
<path d="M2.49998 17.2026V18.5026C2.49998 20.8026 3.29998 22.1026 4.99998 22.1026C6.69998 22.1026 7.49998 20.9026 7.49998 18.1026C7.49998 15.3026 6.9 14.2026 4.4 12.3026C1.9 10.3026 0.600012 9.2026 0.600012 5.7026C0.600012 2.7026 1.49998 -0.0973937 4.99998 0.00260632C8.29998 0.00260632 9.30002 2.2026 9.30002 5.2026V6.30259H6.99998V5.30259C6.99998 3.30259 6.6 2.00261 4.9 2.00261C3.2 2.00261 2.80002 3.5026 2.80002 5.4026C2.80002 7.7026 3.3 8.5026 5.4 10.2026C8.6 12.7026 9.60001 14.0026 9.60001 17.9026C9.60001 21.2026 8.70002 24.2026 4.80002 24.2026C1.10002 24.2026 -2.44141e-05 21.8026 -2.44141e-05 18.7026V17.4026H2.49998V17.2026Z" transform="translate(606.059 182.097)" fill="white"/>
<path d="M2.4 0.100003V18.5C2.4 20.5 3.1 21.9 4.9 21.9C6.8 21.9 7.4 20.6 7.4 18.5V0.100003H9.69999V18.4C9.69999 22 8.00002 23.9 4.80002 23.9C1.70002 23.9 -2.44141e-05 22.1 -2.44141e-05 18.4V-3.05176e-06H2.4V0.100003Z" transform="translate(621.059 182.2)" fill="white"/>
<path d="M-2.44141e-05 3.05176e-06H2.30002V21.5H8.19999L7.9 23.5H-2.44141e-05V3.05176e-06Z" transform="translate(637.059 182.3)" fill="white"/>
<path d="M3.79999 2.09999H0V3.05176e-06H9.90002V2.09999H6.09998V23.6H3.90002V2.09999H3.79999Z" transform="translate(646.459 182.3)" fill="white"/>
<path d="M2.29998 3.05176e-06V23.5H-1.2207e-05V3.05176e-06H2.29998Z" transform="translate(660.759 182.3)" fill="white"/>
<path d="M0 23.5V3.05176e-06H2.70001L6.90002 15C7.40002 16.8 7.70002 18.2 7.90002 19.2H8C7.9 16 7.79999 12.7 7.79999 8.80001V3.05176e-06H9.90002V23.5H7.29999L2.59998 6.4C2.29998 5.2 2.1 4.3 2 3.7C2.1 6.5 2.20001 10.4 2.20001 14.7V23.5H0Z" transform="translate(669.459 182.3)" fill="white"/>
<path d="M9.70002 23.8H7.89998C7.79998 23.4 7.8 22.3 7.8 21.7C7.2 23.5 5.9 24.1 4.3 24.1C1.1 24.1 1.2207e-05 21.7 1.2207e-05 18V6.10001C1.2207e-05 2.20001 1.59998 0 4.89998 0C8.79998 0 9.59999 2.7 9.59999 5.8V6.39999H7.3V5.8C7.3 4 7.1 2 4.8 2C3.1 2 2.20002 3.09999 2.20002 5.89999V18.1C2.20002 20.5 2.79999 22.1 4.59999 22.1C6.89999 22.1 7.3 20 7.3 16.8V13H4.59999V11H9.59999V23.8H9.70002Z" transform="translate(685.159 182)" fill="white"/>
<path d="M27 41.8023C22.9 34.8023 2.00001 31.3024 1.60001 15.8024C1.40001 8.80235 3.69999 4.10235 5.29999 0.702353C5.69999 -0.197647 5.19999 -0.197652 4.69999 0.502348C2.89999 3.10235 6.10352e-06 9.50235 6.10352e-06 15.4023C6.10352e-06 27.1023 9.6 32.3023 17.4 36.6023C22.2 39.2023 26.3 41.5024 26.3 44.2024C26.3 44.4024 26.5 44.4024 26.6 44.4024C26.9 44.3024 27.2 43.9023 27.3 43.6023C27.4 43.2023 27.5 42.7023 27 41.8023Z" transform="translate(267.559 89.5976)" fill="#BE3532"/>
<path d="M7.49999 17.0828C3.99999 14.1828 2.49999 10.2828 1.59999 4.38285C1.59999 4.38285 1.50001 3.18284 1.40001 2.68284C1.30001 1.48284 1.59999 0.582843 1.59999 0.282843C1.59999 0.0828427 1.4 -0.117154 1.2 0.0828458C0.4 0.882846 -1.2207e-05 1.78285 -1.2207e-05 2.88285C-1.2207e-05 3.38285 0.0999939 4.28284 0.0999939 4.48284C1.09999 11.1828 2.89999 15.0828 6.49999 18.0828C11.7 22.4828 20.4 24.8828 26.3 24.8828C27.9 24.8828 29.5 24.7828 31 24.3828C31.6 24.2828 31.6 23.6828 30.9 23.7828C30.1 23.7828 29.4 23.8828 28.6 23.8828C25.2 23.9828 15.2 23.4828 7.49999 17.0828Z" transform="translate(262.259 129.217)" fill="#BE3532"/>
<path d="M16.7828 16.3194C16.7828 16.3194 15.5828 16.6194 13.6828 16.6194C12.7828 16.6194 6.68284 16.6194 5.18284 16.6194C3.68284 16.6194 3.18284 15.9194 3.18284 15.0194C3.18284 14.8194 3.28285 14.5194 3.38285 14.0194C3.78285 12.0194 4.78284 7.61938 4.78284 5.01938C4.78284 2.11938 3.48284 0.219385 2.18284 0.0193845C1.28284 -0.0806155 0.582831 0.219383 0.0828305 0.619383C-0.117169 0.819383 0.0828427 1.01938 0.282843 1.01938C2.48284 1.01938 3.38285 2.41938 3.38285 5.21938C3.38285 7.21938 2.68284 10.3194 2.28284 12.4194C1.98284 13.9194 1.88285 14.5194 1.88285 14.9194C1.88285 15.6194 2.18285 17.8194 5.38285 17.8194C11.0828 17.8194 13.1828 18.0194 14.3828 17.8194C16.0828 17.6194 16.9828 16.8194 17.0828 16.5194C17.0828 16.3194 16.7828 16.3194 16.7828 16.3194Z" transform="translate(295.677 92.2806)" fill="#BE3532"/>
<path d="M24.9 73.6C19.7 73.6 11.2 71.5 6.00001 67.2C2.50001 64.3 1.00001 60.4 0.100012 54.5C0.100012 54.5 6.10352e-06 53.5 6.10352e-06 53.1C6.10352e-06 51.8 0.800006 51 2.00001 50.5C6.40001 48.9 10.8 48.2 11.8 48.1C13.2 48.1 13.7 49.1 13.9 49.8C15.4 55.3 15.9 60.4 23.1 60.4C28.2 60.4 31.6 57.5 31.6 54.6C31.6 45.8 5.29999 44.1 5.29999 25.8C5.29999 14.2 15.7 1.52588e-06 27 1.52588e-06C34.5 1.52588e-06 53.3 6.2 53.3 16.3C53.3 19.7 51.1 25.4 49.9 27.4C49.1 28.9 48.6 29.3 47.3 29.4C45.7 29.6 39 29.6 37.3 29.6C35.8 29.6 35.2 29.1 35.2 28.2C35.2 27.3 36.7 21.8 36.7 18.5C36.7 14.2 34.4 12.8 32 12.8C26.3 12.8 21.9 20.5 21.9 24.8C21.9 36 47.9 35.8 47.9 52.8C47.8 63.8 36.3 73.6 24.9 73.6Z" transform="translate(266.059 77.4)" fill="#BE3532"/>
<path d="M7.6 0.028C7.1 0.528 6.69999 1.128 6.39999 1.828C4.99999 6.828 2.70001 14.128 0.300012 21.228C0.300012 21.328 0.2 21.728 0.1 22.128C0 22.728 -6.10352e-06 23.328 -6.10352e-06 23.928C-6.10352e-06 24.328 0.200012 24.428 0.300012 24.028C3.10001 15.728 6.09999 6.328 7.89999 0.127998C7.79999 0.127998 7.7 -0.072 7.6 0.028Z" transform="translate(341.359 95.972)" fill="#BE3532"/>
<path d="M3.12501 50.2C2.12501 49.4 1.82499 47.9 1.82499 46.7V43.4C1.82499 33.5 2.12499 14.8 2.32499 2.9C2.42499 1.8 2.42501 1.1 2.72501 0.500002C2.92501 0.200002 2.52499 1.52588e-06 2.32499 1.52588e-06C1.42499 0.600002 0.825006 1.5 0.625006 2.7C0.625006 2.7 0.325006 9.1 0.125006 14.8C-0.0749939 24 0.025 37.9 0.025 44.1L0.125006 46.7C0.225006 48.1 0.625 50.1 2.025 51.2C4.825 53.6 13.425 57.8 17.125 57.8C17.925 57.8 18.625 57.7 19.325 57.4C19.625 57.3 19.425 57 19.125 56.9C18.925 56.9 18.425 57.1 16.625 56.7C10.425 55.6 5.22501 52 3.12501 50.2Z" transform="translate(320.434 95.4)" fill="#BE3532"/>
<path d="M14.5 13.7811C10.6 12.4811 5.60001 9.98114 3.20001 7.88114C2.30001 7.08114 1.80001 6.28114 1.60001 4.38114C1.50001 3.48114 1.30001 1.98114 1.10001 0.281136C1.10001 -0.0188642 0.800012 -0.118855 0.700012 0.181145C0.500012 0.681145 0.400012 1.08114 0.200012 1.68114C1.22041e-05 2.18114 0 2.68114 0 3.28114C0 3.28114 0.100012 4.18114 0.200012 4.58114C0.400012 6.58114 0.999988 7.88113 2.29999 8.98113C5.99999 12.0811 14.5 15.9811 18.5 15.9811C19.4 15.9811 20.3 15.7811 21 15.3811C21.3 15.1811 21.2 14.8811 20.9 14.8811C20.7 14.8811 20.3 14.8811 19.7 14.8811C17.9 14.9811 16.7 14.4811 14.5 13.7811Z" transform="translate(348.959 137.419)" fill="#BE3532"/>
<path d="M8 0.209014C8.1 0.00901394 7.90001 -0.0909845 7.60001 0.109015C7.30001 0.309015 6.7 1.00902 6.5 2.00902C4.9 8.70902 2.60001 17.409 0.200012 25.109C0.100012 25.309 0.1 25.809 0 26.109C0 26.609 0 27.109 0 27.509C0 27.809 0.200012 27.809 0.200012 27.509C3.10001 19.109 6.2 8.30901 8 0.209014Z" transform="translate(367.459 95.991)" fill="#BE3532"/>
<path d="M55.6 0.400002C57.8 0.400002 65 4.7 66.5 6.1C67.3 6.9 67.8 8 67.8 8.9C67.8 16.6 55 47.7 48.8 54.5C48 55.3 46.9 55.7 45.7 55.7C42 55.7 33.8 51.9 30.4 49C29.5 48.2 29 47.4 28.8 45.5C28.5 43 27.8 36.8 27.6 31.4C27.6 30.7 27.5 30.5 27.4 30.5C27.3 30.5 27.1 30.7 27 31.3C24.6 39.6 21.3 50.1 18.6 54.2C18.2 55 17.1 55.6 16 55.6C12.8 55.6 4.30001 51.6 1.60001 49.2C0.600006 48.4 0.1 46.9 0 45.7V42.5C0 32.6 0.699994 13.9 0.899994 2C0.999994 0.9 1.90001 0 3.10001 0C6.20001 0.1 11.9 0.700002 15.1 1.4C16.2 1.6 17 2.5 17 3.7C17 4.8 14.3 37.5 14.3 39.7C14.3 40.1 14.3 40.5 14.5 40.5C14.6 40.5 14.8 40.2 15 39.7C18.2 31.8 24.6 12.2 27.5 1.9C27.9 0.600002 28.9 0 30.1 0C32.4 0 38.5 1.1 40.2 1.7C41.3 2.1 41.9 3 41.9 4C41.5 16.9 41.1 35.9 41.1 39.5C41.1 40.2 41.2 40.4 41.4 40.4C41.5 40.4 41.6 40.3 41.8 39.9C45.4 32.4 51 13.4 53.6 1.9C53.9 1.1 54.7 0.400002 55.6 0.400002Z" transform="translate(323.959 94.5)" fill="#BE3532"/>
<path d="M3.09999 52.6828C1.89999 52.1828 1.40001 51.1828 1.40001 50.0828C1.40001 49.3828 1.39999 48.4828 1.49999 47.5828C1.69999 37.6828 6.7 9.98284 9.7 0.282844C9.8 0.0828442 9.50001 -0.11716 9.40001 0.0828397C9.00001 0.48284 8.60001 0.98284 8.40001 1.58284C5.40001 10.6828 -1.2207e-05 40.7828 -1.2207e-05 50.1828C-1.2207e-05 51.8828 0.899994 53.3828 2.59999 54.0828C4.59999 54.9828 12.1 57.0828 14.1 57.0828C14.9 57.0828 15.5 56.8828 16.1 56.3828C16.3 56.1828 16.2 55.9828 16 55.9828C12.9 55.6828 6.69999 54.0828 3.09999 52.6828Z" transform="translate(389.259 96.6171)" fill="#BE3532"/>
<path d="M12.9 16.1777C4.49999 16.4777 1.60001 11.3777 1.30001 7.17767C1.10001 4.97767 1.50001 2.67767 2.30001 0.57767C2.50001 -0.12233 2.29999 -0.222329 1.89999 0.477671C0.699988 2.37767 -6.10352e-06 4.47767 -6.10352e-06 6.57767C-6.10352e-06 11.3777 2.3 14.9777 6.1 16.4777C7.4 16.9777 8.79999 17.2777 10.4 17.2777H10.6C12.6 17.2777 14.5 16.8777 16.1 16.2777C16.6 16.0777 16.5 15.8777 16 15.9777C15 16.0777 14 16.1777 12.9 16.1777Z" transform="translate(398.359 76.4223)" fill="#BE3532"/>
<path d="M12.6 78.9C10.9 78.9 3.70001 76.9 1.70001 76.1C0.500012 75.6 0 74.6 0 73.5C0 64.3 5.29999 34.4 8.29999 25.4C8.59999 24.4 9.69999 23.7 10.9 23.7C12.4 23.7 19 25.2 22.1 26.4C23 26.7 23.6 27.4 23.6 28.4C23.6 28.6 23.5 29.2 23.5 29.2C20.1 43.4 16.2 64.3 14.7 77.2C14.5 78.1 13.6 78.9 12.6 78.9ZM28.9 9.1C28.9 14.9 24.9 19 18.3 19C12 19 9.10001 14.7 9.10001 9.7C9.10001 5.9 11.5 2.9 13.8 1.1C14.6 0.6 16.2 1.52588e-06 17.3 1.52588e-06C22.6 1.52588e-06 28.9 2.6 28.9 9.1Z" transform="translate(392.959 71.4)" fill="#BE3532"/>
<path d="M12.8 55.3375C9.80001 54.8375 4.40001 53.1375 2.90001 52.4375C2.10001 52.0375 1.30001 51.5375 1.30001 50.1375C1.30001 49.9375 1.49999 48.5375 1.49999 48.2375C1.59999 47.0375 2.79999 38.9375 5.59999 22.4375C6.19999 19.1375 6.70001 16.2375 6.80001 15.6375C6.90001 15.1375 6.9 14.6375 6.7 14.3375C6.4 13.9375 5.39999 14.0375 3.99999 13.8375C2.59999 13.6375 2.30001 12.3375 2.30001 11.2375C2.30001 10.2375 2.19999 6.1375 2.49999 2.1375C2.49999 1.8375 2.80001 0.537497 2.80001 0.337497C2.90001 0.0374969 2.60001 -0.0624985 2.40001 0.0375015C1.60001 0.737502 1.2 1.7375 1.2 2.7375C1 4.8375 0.999988 8.8375 0.999988 11.7375C0.999988 13.6375 2.39999 15.1375 4.49999 15.1375C4.49999 15.1375 5.39999 15.0375 5.59999 15.4375C5.79999 15.8375 4.89999 20.0375 4.09999 24.5375C1.39999 40.6375 -1.2207e-05 49.0375 -1.2207e-05 50.2375C-1.2207e-05 52.6375 1.60001 53.4375 2.30001 53.8375C4.20001 54.7375 11.6 56.8375 14.1 56.8375C14.9 56.8375 15.7 56.5375 16.4 56.0375C16.5 55.9375 16.4 55.7375 16.2 55.8375C15.4 55.8375 14.2 55.6375 12.8 55.3375Z" transform="translate(418.259 96.8625)" fill="#BE3532"/>
<path d="M4.625 0.100002C3.325 0.100002 1.82499 3.05176e-06 0.424988 3.05176e-06C0.224988 3.05176e-06 0.225 0.100002 0.125 0.100002V0.2C0.125 0.4 0.0249939 0.599998 0.0249939 0.799998C0.0249939 0.899998 -0.075 1 0.125 1.1C0.725 1.2 1.62501 1.1 2.32501 1.2C3.32501 1.2 4.32499 1.3 4.92499 1.3C5.72499 1.3 6.52501 1 7.22501 0.600002C7.32501 0.500002 7.32501 0.299998 7.22501 0.299998C6.62501 0.199998 5.625 0.200002 4.625 0.100002Z" transform="translate(445.834 110.8)" fill="#BE3532"/>
<path d="M1.02724 11.2885C1.82724 7.38855 3.02725 3.88855 4.72725 0.388545C4.92725 -0.111455 4.72724 -0.111453 4.52724 0.288547C2.12724 3.98855 1.12724 7.88854 0.027242 11.4885C-0.072758 11.7885 0.127254 11.7885 0.227254 11.7885C0.327254 11.7885 0.427248 11.7885 0.627248 11.7885C0.927248 11.6885 0.927242 11.7885 1.02724 11.2885Z" transform="translate(427.232 81.0115)" fill="#BE3532"/>
<path d="M3.80001 0.3C3.10001 0.1 2.4 -3.05176e-06 2.2 -3.05176e-06C1.5 -3.05176e-06 0.699994 0.200003 0.0999939 0.600003C-6.10203e-06 0.700003 -0.1 0.9 0.2 0.8C1 0.7 1.50001 0.799997 2.30001 0.999997C3.00001 1.2 3.90001 1.3 4.40001 1.3C5.30001 1.3 5.99999 1.2 6.59999 0.8C6.69999 0.7 6.60001 0.499997 6.30001 0.499997C5.70001 0.699997 4.50001 0.4 3.80001 0.3Z" transform="translate(451.759 89.2)" fill="#BE3532"/>
<path d="M31.9 14.8C28.7 14.8 25.5 17.9 25.5 21.2C25.5 22.1 26 22.5 27.1 22.5C29.1 22.5 31.2 22.5 32.6 22.6C34 22.7 34.5 23.9 34.5 25.1C34.4 27.6 34.1 32 33.6 34.6C33.4 35.7 32.3 36.6 31.1 36.6C29.6 36.6 26.7 36.5 24.1 36.5C23 36.5 22 37.3 21.8 38.2C19.5 50.1 16.8 65.4 14.9 76.2C14.7 77.2 13.7 78.1 12.6 78.1C10.4 78.1 3.2 76.1 1.5 75.3C0.7 74.9 0 74.3 0 72.9C0 70.9 5.70001 38.6 5.70001 38.1C5.70001 36.9 5.50001 36.2 4.60001 36.2H3C1.7 36.2 0.899994 35.4 0.899994 34.3C0.899994 33.2 0.900006 28 1.10001 25.6C1.10001 24.4 2.00001 23.2 3.60001 23.2H6C7.3 23.2 8.19999 22.2 8.39999 21C10.6 10 15.2 -3.05176e-06 28.8 -3.05176e-06C32.1 -3.05176e-06 36.1 0.899998 39.3 2.4C40.2 2.9 40.6 3.6 40.6 4.5C40.6 5.6 38.2 13.8 38 14.4C37.8 15.2 37 15.5 36.3 15.5C35.6 15.6 33.5 14.8 31.9 14.8Z" transform="translate(421.959 72.2)" fill="#BE3532"/>
<path d="M16.2 55.1828C8.00001 51.9828 2.5 45.3828 2.6 34.5828C2.6 30.5828 4.40001 19.5828 5.20001 15.5828L5.30001 15.0828C5.30001 14.5828 4.9 14.3828 4.6 14.2828C4.4 14.2828 3.30001 14.1828 3.30001 14.1828C2.20001 14.1828 1.20001 12.9828 1.20001 11.7828V6.98284C1.20001 5.38284 1.20001 3.58285 1.20001 2.68285C1.20001 1.78285 1.19999 1.48284 1.39999 0.782844C1.39999 0.682844 1.49999 0.382844 1.49999 0.282844C1.49999 0.0828442 1.3 -0.11716 1.1 0.0828397C0.5 0.68284 0.2 1.58284 0.1 2.58284C0 3.88284 -6.10352e-06 11.7828 -6.10352e-06 11.7828C0.199994 13.6828 1.40001 15.2828 3.30001 15.2828H3.89999C3.89999 15.2828 4.09999 15.2828 3.99999 15.3828C3.89999 15.6828 3.80001 16.2828 3.70001 16.7828C2.90001 20.8828 0.900006 31.0828 1.20001 37.1828C1.60001 45.5828 6.69999 53.5828 15.5 56.0828C16.9 56.4828 18.1 56.3828 18.9 56.1828C19.1 56.0828 19 55.7828 18.8 55.6828C18 55.6828 17.4 55.4828 16.2 55.1828Z" transform="translate(458.859 96.6171)" fill="#BE3532"/>
<path d="M0.100006 0.399997C0.100006 0.499997 0 0.699997 0 0.899997C0 1.1 0.100012 1.1 0.200012 1.1C0.300012 1.1 5.89999 1.1 5.89999 1.1C6.79999 1.1 7.59999 0.799997 8.29999 0.399997C8.49999 0.299997 8.5 3.05176e-06 8 3.05176e-06C7.5 3.05176e-06 0.600006 3.05176e-06 0.600006 3.05176e-06C0.600006 3.05176e-06 0.100006 0.0999969 0.100006 0.399997Z" transform="translate(484.959 110.8)" fill="#BE3532"/>
<path d="M5.60001 0.326602C5.70001 0.126602 5.49999 -0.0734014 5.39999 0.0265986C4.89999 0.426599 4.59999 0.926599 4.39999 1.5266C3.49999 3.8266 1.8 9.0266 0 15.5266C0 15.6266 1.22041e-05 15.9266 0.200012 15.9266C0.400012 15.9266 0.400006 15.9266 0.600006 15.9266C0.800006 15.9266 0.900006 15.6266 1.10001 15.3266C1.80001 12.7266 4.70001 2.9266 5.60001 0.326602Z" transform="translate(467.459 76.9734)" fill="#BE3532"/>
<path d="M31 33H23C21.7 33 21 33.9 20.7 35C19 43.2 17.6 49.9 17.6 52.8C17.6 57.4 19.3 59.9 23.4 61.9C24.1 62.2 24.6 62.8 24.6 63.8C24.6 64.1 24.5 64.5 24.4 64.7C23.2 67.2 21.1 70.9 18.9 73.4C18.2 74.1 17.4 74.5 16.4 74.5C15.9 74.5 15.2 74.3 15.2 74.3C6.29999 71.5 1.3 63.8 1.3 55.5C1.3 48.4 4.40001 34.8 4.40001 34.2C4.40001 33.4 3.99999 32.9 3.19999 32.9H2.09999C0.999988 32.9 0.100012 32 1.2207e-05 30.8V26.3C1.2207e-05 24.7 -1.22115e-05 23.1 0.0999878 21.9C0.199988 20.8 1.00001 19.7 2.40001 19.6L6.19999 19.3C7.49999 19.2 7.9 18.3 8.3 17.2C10.2 10.3 12.1 4.2 13.2 1.5C13.5 0.500003 14.4 3.05176e-06 15.4 3.05176e-06C18.5 3.05176e-06 24.1 2 26.9 3.2C27.8 3.5 28.3 4.2 28.3 5.1C28.3 7 24.9 16 24.9 17.5C24.9 18.3 25.3 18.9 26.2 19C28.4 19 30.8 19 32.2 19.1C33.6 19.2 34.2 20.4 34.2 21.6V22.5C34.2 25.2 33.9 28.9 33.5 31.1C33.4 32.3 32.3 33 31 33Z" transform="translate(462.159 75.8)" fill="#BE3532"/>
<path d="M14.1 25.509C8.20001 20.209 3.20002 7.10902 0.800024 0.309015L0.699988 0.109019C0.599988 -0.0909815 0.400024 0.00901699 0.300024 0.209017C0.200024 0.809017 0.0999756 1.30902 -2.44141e-05 2.00902C-2.44141e-05 2.20902 1.22041e-05 2.50901 0.100012 2.60901C4.50001 14.709 8.89999 22.709 13.2 26.609C14.2 27.409 15.2 27.809 16.4 27.809C17.4 27.809 18.1 27.509 18.2 27.409C18.4 27.309 18.7 27.209 18.9 27.109C19.2 27.009 19.2 26.709 18.9 26.709L18.6 26.809C17.6 27.109 16 27.109 14.1 25.509Z" transform="translate(536.559 125.791)" fill="#BE3532"/>
<path d="M3.09998 70.5392C1.89998 70.0392 1.5 69.0392 1.5 67.9392C1.5 67.1392 1.59998 66.2392 1.59998 65.2392C2.19998 49.0392 9.60002 11.7392 13.9 0.23923C14 0.0392305 13.8 -0.0607665 13.7 0.0392335C13.3 0.439234 13 0.839229 12.7 1.33923C8.40001 11.6392 0.4 51.7392 0 67.8392C0 69.6392 0.9 71.0392 2.5 71.8392C3.6 72.3392 11.5 74.9392 14.3 74.9392C15.1 74.9392 15.7 74.7392 16.3 74.2392C16.4 74.1392 16.3 73.8392 16.1 73.8392C13 74.0392 4.29998 70.9392 3.09998 70.5392Z" transform="translate(512.959 78.7608)" fill="#BE3532"/>
<path d="M59.6 10.6C59.6 11.1 59.3 11.7 58.8 12.1C54.4 16.4 44.5 27.9 35.4 37.3C35 37.7 34.6 38.3 34.6 38.9C34.6 39.4 34.9 40 34.9 40C39.4 48.1 45.3 58.3 50.1 62.5C50.5 62.9 50.9 63.5 50.9 64C50.9 64.4 50.7 64.9 50.4 65.2C47.8 67.6 43 71.1 39.7 72.6C39.7 72.6 39.3 72.8 38.5 72.8C37.6 72.8 36.9 72.5 36.2 71.9C30.3 66.6 25.3 53.5 22.9 46.7C22.6 45.7 21.9 45 20.8 45H20C19 45 18.4 45.9 18.1 47C16.6 55 15.5 63.3 14.5 71.2C14.4 72.3 13.6 72.8 12.8 72.8C10.4 72.8 2.90002 70.4 1.60002 69.9C0.400024 69.4 -1.2207e-05 68.4 -1.2207e-05 67.3C0.299988 51.4 8.29999 11.5 12.5 1.4C12.9 0.400002 13.8 0 14.7 0C16.7 0 23.6 2 26.6 2.9C27.5 3.2 28 4 28 4.9C28 5.1 27.9 5.4 27.9 5.4C26.2 10.2 23.9 19.1 21.6 30.2C21.6 30.2 21.5 30.7 21.5 31C21.5 31.7 21.8 31.9 22.4 31.9C23.3 31.9 24.3 31.2 24.9 30.5C33 21 42.6 7 47.2 1.4C47.6 0.900002 48.3 0.5 48.9 0.5C49.3 0.5 49.9 0.600003 50.2 0.800003C52.6 2.5 56.4 6 59 9.2C59.4 9.6 59.6 10.1 59.6 10.6Z" transform="translate(516.759 77.5)" fill="#BE3532"/>
<path d="M3.09999 52.6828C1.89999 52.1828 1.39998 51.1828 1.39998 50.0828C1.39998 49.3828 1.40001 48.4828 1.50001 47.5828C1.70001 37.6828 6.70002 9.98284 9.70002 0.282844C9.80002 0.0828442 9.49998 -0.11716 9.39998 0.0828397C8.99998 0.48284 8.59998 0.98284 8.39998 1.58284C5.39998 10.6828 1.2207e-05 40.7828 1.2207e-05 50.1828C1.2207e-05 51.8828 0.899988 53.3828 2.59999 54.0828C4.59999 54.9828 12.1 57.0828 14.1 57.0828C14.9 57.0828 15.5 56.8828 16.1 56.3828C16.3 56.1828 16.2 55.9828 16 55.9828C12.8 55.6828 6.59999 54.0828 3.09999 52.6828Z" transform="translate(570.159 96.6171)" fill="#BE3532"/>
<path d="M12.9 16.1777C4.49998 16.4777 1.6 11.3777 1.3 7.17767C1.1 4.97767 1.5 2.67767 2.3 0.57767C2.5 -0.12233 2.29998 -0.222329 1.89998 0.477671C0.699975 2.37767 1.2207e-05 4.47767 1.2207e-05 6.57767C1.2207e-05 11.3777 2.29999 14.9777 6.09999 16.4777C7.39999 16.9777 8.79998 17.2777 10.4 17.2777H10.6C12.6 17.2777 14.5 16.8777 16.1 16.2777C16.6 16.0777 16.5 15.8777 16 15.9777C15 16.0777 14 16.1777 12.9 16.1777Z" transform="translate(579.159 76.4223)" fill="#BE3532"/>
<path d="M12.6 78.9C10.9 78.9 3.69998 76.9 1.69998 76.1C0.499976 75.6 2.44141e-05 74.6 2.44141e-05 73.5C2.44141e-05 64.3 5.30001 34.4 8.30001 25.4C8.60001 24.4 9.69999 23.7 10.9 23.7C12.4 23.7 19 25.2 22.1 26.4C23 26.7 23.6 27.4 23.6 28.4C23.6 28.6 23.5 29.2 23.5 29.2C20.1 43.4 16.2 64.3 14.7 77.2C14.4 78.1 13.5 78.9 12.6 78.9ZM28.8 9.1C28.8 14.9 24.8 19 18.2 19C11.9 19 9.00002 14.7 9.00002 9.7C9.00002 5.9 11.4 2.9 13.7 1.1C14.5 0.6 16.1 1.52588e-06 17.2 1.52588e-06C22.5 1.52588e-06 28.8 2.6 28.8 9.1Z" transform="translate(573.859 71.4)" fill="#BE3532"/>
<path d="M5.90002 37.1201C3.00002 33.4201 1.40002 28.7201 1.40002 22.7201C1.40002 14.2201 3.69998 6.02014 6.59998 0.520141C6.89998 -0.0798594 6.59999 -0.179864 6.29999 0.320136C2.19999 7.02014 0 15.2201 0 22.8201C0 29.0201 1.59999 34.0201 4.79999 38.1201C9.29999 43.7201 19 46.5201 24.4 46.7201C26.4 46.8201 27.8 46.5201 29.7 45.8201C30.2 45.6201 30 45.3201 29.3 45.5201C28 45.8201 27.2 45.8201 26 45.8201C18.5 45.5201 9.50002 41.7201 5.90002 37.1201Z" transform="translate(595.959 106.88)" fill="#BE3532"/>
<path d="M13.9 12.8828C12.4 13.1828 7.79998 13.1828 5.29998 13.1828C5.29998 13.1828 3.69999 13.1828 2.99999 13.0828C1.69999 12.9828 1.20001 11.9828 1.40001 10.3828C1.70001 8.08284 2.89998 3.58284 2.79998 1.78284C2.79998 1.28284 2.70001 0.682843 2.40001 0.282843C2.30001 0.0828427 2 -0.117154 1.7 0.0828458C1.5 0.182846 1.3 0.38284 1.2 0.48284C1.1 0.58284 1.10002 0.682841 1.10002 0.882841C1.20002 1.18284 1.29998 1.58285 1.29998 2.58285C1.29998 3.68285 0.800012 6.08284 0.400012 7.88284C0.100012 9.48284 -1.2207e-05 10.6828 -1.2207e-05 11.1828C-1.2207e-05 12.7828 0.800025 14.2828 2.60002 14.2828C4.40002 14.3828 10.1 14.0828 11.9 13.9828C12.6 13.8828 13.3 13.5828 13.9 13.2828C14.2 13.0828 14.1 12.8828 13.9 12.8828Z" transform="translate(623.259 109.717)" fill="#BE3532"/>
<path d="M27.5 24.4C27.5 23.5 28.9 18.3 28.9 16.2C28.9 14.1 28.4 12.8 26.8 12.8C22 12.8 15.9 24.3 15.9 33.1C15.9 38.4 18.3 41.7 22.3 41.7C26.1 41.7 30.3 40.2 33.3 38.4C33.3 38.4 33.7 38.2 34.2 38.2C35 38.2 35.4 38.5 35.8 39.3C36.6 40.7 38.6 45.2 38.6 46.7C38.6 47.9 38.2 48.8 37.5 49.4C33.6 52.9 28.4 56.1 22.3 56.1C18.7 56.1 8.7 53.2 4.5 47.9C1.6 44.2 0 39.5 0 33.5C0 18.2 10 3.05176e-06 22.5 3.05176e-06C26.8 3.05176e-06 43.6 5.8 43.6 14.6C43.6 17.2 41.5 22.5 40.4 24.2C39.9 25.1 39 25.7 37.8 25.8C36.1 25.9 31.5 25.9 29 25.9C28.2 25.9 27.5 25.2 27.5 24.4Z" transform="translate(599.459 94.3)" fill="#BE3532"/>
<path d="M11.5 17.0394C10.5 16.8394 9.69998 16.3394 9.29998 15.9394C6.29998 13.0394 2.69999 5.73938 0.499988 0.139382C0.399988 -0.0606184 0.2 -0.0606123 0.2 0.239388C0.1 0.739388 -1.2207e-05 1.23939 -1.2207e-05 1.73939C-1.2207e-05 1.93939 2.44156e-05 2.53938 0.100024 2.63938C2.30002 7.83938 5.60001 14.1394 8.40001 16.9394C9.20001 17.7394 10.4 18.2394 11.6 18.2394C12.5 18.2394 13.4 17.8394 13.6 17.8394C13.8 17.7394 13.9 17.7394 14.1 17.6394C14.4 17.4394 14.3 17.2394 13.9 17.2394C13.2 17.2394 12.5 17.2394 11.5 17.0394Z" transform="translate(664.259 135.261)" fill="#BE3532"/>
<path d="M13 76.3414C11.4 76.0414 4.60002 74.0414 3.10002 73.4414C1.70002 72.7414 1.10002 71.5414 1.10002 70.5414C1.10002 69.9414 1.2 68.6414 1.2 68.6414C1.8 51.5414 10.3 11.8414 15.1 0.141423C15.2 0.0414229 15 -0.0585756 14.9 0.0414244C14.4 0.441424 14.1 0.941424 13.9 1.54142C9.20001 12.2414 0.499988 53.0414 -1.2207e-05 70.4414C-1.2207e-05 73.0414 1.40002 74.2414 2.60002 74.7414C4.50002 75.5414 11.6 77.7414 14 77.7414C14.8 77.7414 15.5 77.4414 16.1 77.0414C16.2 76.9414 16.2 76.6414 15.9 76.7414C15 76.7414 14.6 76.6414 13 76.3414Z" transform="translate(642.259 75.7586)" fill="#BE3532"/>
<path d="M31.8 48.9C31.8 49.3 32 49.7 32.2 50C35.6 55.6 40.1 61.8 43.8 65.4C44.2 65.8 44.6 66.5 44.6 67C44.6 67.4 44.4 68 44.1 68.3C40.7 71.6 36.2 74.3 33.5 75.5C33.5 75.5 32.7 75.8 32.1 75.8C31.2 75.8 30.5 75.5 29.9 74.9C26.5 71.6 22.4 62.8 20.3 57.1C20 56 19.4 55 18.6 55C17.6 55 17.1 55.9 16.9 57.1C16 62.7 15.2 68.4 14.5 73.9C14.4 75 13.5 75.6 12.5 75.6C10.4 75.6 3.39999 73.5 1.69999 72.8C0.299988 72.1 -2.44141e-05 70.9 -2.44141e-05 69.9C0.499976 53.1 9.2 12.1 13.9 1.5C14.2 0.600002 15.1 1.52588e-06 16.2 1.52588e-06C17.8 1.52588e-06 26.1 2.5 27.8 3.2C28.8 3.5 29.2 4.4 29.2 5.3C29.2 5.6 28.9 6.5 28.9 6.5C26.6 12.8 23.3 24.8 20.1 40.7C20.1 40.7 20 41.1 20 41.4C20 42.1 20.3 42.4 20.8 42.4C21.5 42.4 22.3 41.5 23.1 40.7C28.8 34.2 35.9 25.8 38.9 21.9C39.3 21.4 40 21 40.6 21C41.3 21 41.8 21.4 41.8 21.4C44 22.9 47.9 26.6 50 29.4C50.3 29.8 50.4 30.4 50.4 30.8C50.4 31.5 50.1 32 49.5 32.5C46.4 35.1 39.5 41.8 33 47.3C32.2 47.7 31.8 48.3 31.8 48.9Z" transform="translate(646.059 74.4)" fill="#BE3532"/>
<path d="M228.959 60.9C228.459 58.2 226.059 56.6 224.559 55.5C224.459 55.4 224.259 55.3 224.159 55.2C224.459 54.5 225.059 53.6 225.459 53C225.859 52.4 226.159 51.8 226.459 51.3C227.159 50 228.559 47.3 216.359 32.3C211.359 26.2 192.459 12.8 189.359 11.6C187.359 10.8 184.859 10.3 183.659 10.1C181.059 7.8 171.859 0 156.559 0C151.359 0 145.859 0.9 140.359 2.8C116.659 10.6 114.359 38.9 113.659 48.1C113.659 48.5 113.559 48.9 113.559 49.2C113.059 49.2 112.459 49.1 111.859 49.1C110.859 49 109.859 48.9 108.859 48.9C108.459 48.9 108.059 48.9 107.659 49C105.059 49.3 103.759 52 103.059 54.8C102.059 54.3 100.859 54 99.6594 54C99.3594 54 99.1594 54 98.8594 54C97.1594 54.2 95.9594 54.8 95.0594 55.3C93.5594 54.1 91.0594 51.7 89.5594 48.2C89.0594 46.9 88.6594 43.8 88.3594 40.7C87.5594 33 86.7594 25.1 81.5594 24.7C80.4594 24.6 79.1594 24.5 77.8594 24.3C75.2594 24 72.2594 23.7 68.9594 23.7C63.0594 23.7 57.8594 24.8 53.0594 27.2C52.0594 27.7 51.3594 28.5 51.0594 29.5C50.3594 31.8 51.8594 34.2 53.6594 37C54.3594 38.1 55.5594 40.1 55.9594 41.2C54.5594 40.9 52.2594 40 50.3594 39.2C47.0594 37.9 43.8594 36.6 41.5594 36.6C40.3594 36.6 39.3594 36.9 38.6594 37.6C18.5594 56.1 7.65938 89.4 10.4594 101.9C11.3594 105.9 13.4594 107.4 15.0594 107.9C22.8594 110.4 29.7594 114.2 35.1594 118.2C34.9594 121.5 34.2594 124.4 32.5594 126.5C27.2594 133.1 19.2594 134.8 14.9594 135.7C13.1594 136.1 12.1594 136.3 11.4594 136.9C10.0594 138 9.35938 140 9.05938 141.2L0.759375 149.2C-0.140625 150.1 -0.240625 151.4 0.459375 152.4L2.45937 155C2.85937 155.6 3.55938 155.9 4.25938 156H4.45937C5.05937 156 5.65937 155.8 6.15937 155.3L14.0594 147.7C17.8594 147.2 32.1594 144.6 40.1594 132C41.5594 129.8 42.5594 127.6 43.2594 125.4C44.6594 127 45.7594 128.5 46.4594 129.7C51.4594 138.8 53.2594 145 55.5594 152.9C55.9594 154.1 56.2594 155.4 56.6594 156.8C58.3594 162.6 61.4594 164.8 63.7594 166.5C65.6594 167.9 66.6594 168.6 66.8594 171.1C67.3594 178.3 76.0594 190.9 78.5594 194.4C78.4594 195.9 78.2594 198.5 78.7594 200.2C79.1594 201.7 85.4594 210.5 97.4594 226.2L98.0594 226.9L98.9594 227.1C99.1594 227.1 100.359 227.4 103.059 227.4C104.659 227.4 106.359 227.3 108.259 227.2C114.859 226.7 127.159 221.1 129.859 217.5C130.759 216.3 131.359 215.9 131.559 215.8H131.659C131.659 215.8 132.359 215.7 133.159 215.7C133.559 215.7 134.059 215.7 134.359 215.8C134.559 215.8 134.759 215.9 134.859 215.9C135.759 215.9 137.059 215.9 145.759 208.3C147.659 206.6 153.959 201.1 154.759 199.5C155.259 198.6 155.259 197.7 155.059 196.8C155.859 196.7 156.659 196.5 157.459 196.3C158.559 196 160.659 195.3 168.759 181.6C172.559 175.3 176.359 168.2 176.859 167C177.659 165 176.459 163.2 175.259 161.2C174.159 159.4 172.959 157.4 173.259 155.8C173.759 153.6 180.059 145.4 186.259 138.3C186.559 138.3 186.859 138.4 187.159 138.4C188.259 138.4 189.759 138.2 191.459 137.8C194.959 137 200.059 132.6 203.659 129.1C211.559 121.4 211.459 119.8 211.359 119.1C211.259 118.1 210.759 117.3 210.159 116.6C211.259 116.5 212.359 116.3 213.259 115.9C214.059 115.6 215.859 114.8 219.959 104.8C220.359 103.8 223.759 95.4 223.759 92.5C223.759 92 223.759 91.5 223.659 91.1C224.559 90.7 225.459 90.2 226.259 89.2C226.859 88.5 228.159 86.9 228.959 74.8C229.059 70.1 229.359 62.8 228.959 60.9ZM85.1594 48.7C86.5594 48.1 88.3594 49.5 88.0594 51.1C87.7594 52.7 88.0594 53.2 86.9594 53.8C85.9594 54.3 84.7594 53.2 83.5594 52.5C82.7594 52 83.8594 49.2 85.1594 48.7ZM42.9594 88.5C39.4594 101.6 44.0594 112.5 41.2594 123.4C40.6594 125.8 39.6594 128.3 38.0594 130.7C29.5594 144.1 12.9594 145.4 12.9594 145.4L4.45937 153.6L2.45937 151L11.2594 142.5C11.2594 142.5 11.6594 139.9 12.9594 138.9C14.2594 137.9 26.8594 137.6 34.4594 128.1C36.2594 125.9 37.0594 123.1 37.4594 120C38.6594 109.9 34.3594 96.3 38.3594 86.6C39.3594 84.2 40.4594 81.9 41.7594 79.8C42.6594 78.4 43.5594 77 44.5594 75.7C46.0594 73.7 47.6594 71.9 49.2594 70.2C50.9594 68.5 52.6594 67 54.3594 65.6C55.5594 64.7 56.6594 63.8 57.8594 63.1C58.4594 62.7 59.0594 62.4 59.6594 62C60.8594 61.3 61.9594 60.7 63.1594 60.2C63.4594 60.1 63.7594 60 64.0594 59.9H64.3594C64.5594 59.9 64.6594 59.8 64.8594 59.8H65.0594C65.2594 59.8 65.4594 59.8 65.5594 59.9L65.7594 60C65.9594 60.1 66.0594 60.1 66.1594 60.2L66.2594 60.3C66.4594 60.4 66.5594 60.5 66.7594 60.7V60.8C66.8594 60.9 66.9594 61.1 67.0594 61.2L67.1594 61.4C67.2594 61.5 67.2594 61.7 67.2594 61.8V62C67.2594 62.2 67.2594 62.4 67.2594 62.6C67.2594 62.7 67.1594 62.9 66.9594 63C66.7594 63.2 66.5594 63.4 66.2594 63.6C65.8594 63.9 65.2594 64.3 64.5594 64.8C64.0594 65.1 63.6594 65.4 63.0594 65.8C62.5594 66.1 61.9594 66.5 61.3594 66.9C60.7594 67.3 60.1594 67.7 59.4594 68.2C58.4594 68.9 57.4594 69.6 56.4594 70.4C54.7594 71.7 52.9594 73.2 51.2594 74.9C50.5594 75.6 49.9594 76.3 49.2594 77C46.5594 80.1 44.1594 84 42.9594 88.5ZM62.2594 34.5C61.8594 41.7 71.1594 50.4 69.3594 50.2C67.5594 50 66.8594 49.7 62.4594 43.6C53.6594 31.5 56.6594 30.9 58.0594 30C59.7594 29 63.8594 28.3 67.4594 27.9C72.5594 27.4 75.6594 28 81.4594 29.2C82.5594 29.4 80.9594 32.1 78.3594 31.2C72.6594 29.5 62.5594 29.1 62.2594 34.5ZM84.9594 65.4C84.7594 66.2 84.9594 67 83.9594 67.5C82.9594 68 80.0594 67.3 80.6594 64.2C80.9594 63 82.1594 61.3 83.0594 61C83.9594 60.7 85.6594 61.7 86.1594 61.8C87.0594 61.9 85.0594 64.6 84.9594 65.4ZM92.1594 57.9C91.1594 58.6 89.0594 60.1 86.2594 59.6C83.4594 59.1 82.0594 57.8 80.0594 57.9C78.0594 58 77.2594 59.8 75.8594 59.6C74.3594 59.4 72.7594 57 74.5594 55.2C75.3594 54.4 78.3594 53.1 80.4594 53.2C82.5594 53.4 84.2594 55 86.0594 55.2C88.2594 55.5 90.0594 54.2 91.3594 54.5C92.4594 54.8 93.0594 57.2 92.1594 57.9ZM205.759 32.9C209.159 31.8 222.159 46.9 220.759 51.6C219.259 56.3 204.559 65.9 201.659 65.3C198.759 64.8 197.459 60.8 196.759 57.9C195.859 54.6 202.359 34 205.759 32.9ZM190.959 95.9C186.959 99.5 173.459 98.9 169.359 94.4C165.959 90.7 174.259 65.6 181.159 62.5C186.559 60.1 193.859 64.2 195.659 66.5C198.359 69.9 194.959 92.3 190.959 95.9ZM175.259 27.4C178.659 24 194.959 24.2 197.559 28.6C200.159 33 192.659 55.1 190.959 56.8C189.359 58.5 180.259 58.1 179.459 56.8C177.859 54.2 171.859 30.8 175.259 27.4ZM166.859 32.9C171.359 33.2 175.559 57.5 175.059 59C174.559 60.5 170.159 66.4 168.459 67.3C166.059 68.6 150.659 60.2 150.159 56.5C149.659 52.9 158.259 32.3 166.859 32.9ZM139.359 113.7C136.659 111.6 136.859 95.6 139.359 93.5C141.859 91.4 160.659 91.2 162.359 93.5C164.059 95.8 161.459 112 160.359 112.5C156.659 114.4 142.059 115.9 139.359 113.7ZM159.059 129.5C156.759 132.3 140.559 138.7 138.559 136C136.459 133.3 137.459 118.9 140.159 118.1C142.859 117.3 158.659 115.7 159.959 118.1C161.359 120.5 159.059 129.5 159.059 129.5ZM139.559 86.4C138.059 83.5 142.759 67 146.659 64.6C150.559 62.2 166.059 71.2 166.759 73.3C167.459 75.4 164.259 87.5 162.959 87.9C160.859 88.5 141.059 89.4 139.559 86.4ZM139.259 10.8C150.059 5.3 159.159 8.1 159.159 8.1C159.159 8.1 146.659 11.1 140.259 15.7C134.459 19.9 129.159 26.3 129.159 26.3C129.159 26.3 129.959 15.5 139.259 10.8ZM100.859 217.3C95.9594 216.9 98.0594 203.1 102.959 200.8C107.859 198.5 115.559 197.2 117.159 198.2C118.759 199.3 117.559 201.6 116.059 203.3C114.559 205.1 103.559 217.6 100.859 217.3ZM128.259 213.2C127.059 215.8 111.259 223.9 109.059 219.9C106.859 215.9 118.659 205.6 121.559 204.4C125.359 202.9 127.259 203.1 129.159 205C130.959 207 129.459 210.7 128.259 213.2ZM120.659 192.3C116.259 194.6 108.959 196.5 107.159 193.1C105.359 189.8 117.759 175.2 120.559 173.7C125.259 171.2 130.759 175 131.459 178.3C132.159 181.6 125.059 190 120.659 192.3ZM148.859 197.2C148.359 200.2 138.859 209.5 135.659 209.3C132.459 209.1 132.659 204.4 134.159 200.9C135.659 197.5 138.859 194.4 141.959 192.7C144.759 191.3 149.359 194.1 148.859 197.2ZM155.459 192.2C152.459 194.1 146.359 190.6 146.659 187.7C147.159 183.1 149.359 176.7 151.759 175C154.259 173.3 161.759 168.6 164.259 171.8C166.759 175 158.459 190.3 155.459 192.2ZM125.959 163.5L120.159 151.9L167.859 156.2L171.459 163.4H125.959V163.5ZM175.859 128.6C173.559 129.8 165.059 129.9 164.359 127.9C163.059 124.2 164.859 103.1 169.359 101.4C173.859 99.7 183.859 101.9 185.759 106.5C187.659 111.1 178.059 127.4 175.859 128.6ZM189.559 134.2C187.559 134.2 181.459 131.8 181.259 129.4C181.059 127.1 186.859 116.8 189.559 114.7C192.259 112.6 203.459 114.6 205.259 118C207.159 121.6 191.559 134.2 189.559 134.2ZM210.159 111.2C207.259 112.7 194.959 112.9 193.259 110C191.559 107.1 196.459 96.7 198.759 95.5C203.659 92.9 216.359 90.4 217.559 92.8C218.759 95.3 213.059 109.7 210.159 111.2ZM221.159 84.7C218.259 88.4 200.759 90.3 199.159 88.5C197.659 86.7 199.959 74.4 202.259 71.7C205.859 67.6 217.659 59 221.159 60.1C226.459 61.9 224.159 81 221.159 84.7Z" fill="white"/>
<path d="M228.959 60.9C228.459 58.2 226.059 56.6 224.559 55.5C224.459 55.4 224.259 55.3 224.159 55.2C224.459 54.5 225.059 53.6 225.459 53C225.859 52.4 226.159 51.8 226.459 51.3C227.159 50 228.559 47.3 216.359 32.3C211.359 26.2 192.459 12.8 189.359 11.6C187.359 10.8 184.859 10.3 183.659 10.1C181.059 7.8 171.859 0 156.559 0C151.359 0 145.859 0.9 140.359 2.8C116.659 10.6 114.359 38.9 113.659 48.1C113.659 48.5 113.559 48.9 113.559 49.2C113.059 49.2 112.459 49.1 111.859 49.1C110.859 49 109.859 48.9 108.859 48.9C108.459 48.9 108.059 48.9 107.659 49C105.059 49.3 103.759 52 103.059 54.8C102.059 54.3 100.859 54 99.6594 54C99.3594 54 99.1594 54 98.8594 54C97.1594 54.2 95.9594 54.8 95.0594 55.3C93.5594 54.1 91.0594 51.7 89.5594 48.2C89.0594 46.9 88.6594 43.8 88.3594 40.7C87.5594 33 86.7594 25.1 81.5594 24.7C80.4594 24.6 79.1594 24.5 77.8594 24.3C75.2594 24 72.2594 23.7 68.9594 23.7C63.0594 23.7 57.8594 24.8 53.0594 27.2C52.0594 27.7 51.3594 28.5 51.0594 29.5C50.3594 31.8 51.8594 34.2 53.6594 37C54.3594 38.1 55.5594 40.1 55.9594 41.2C54.5594 40.9 52.2594 40 50.3594 39.2C47.0594 37.9 43.8594 36.6 41.5594 36.6C40.3594 36.6 39.3594 36.9 38.6594 37.6C18.5594 56.1 7.65938 89.4 10.4594 101.9C11.3594 105.9 13.4594 107.4 15.0594 107.9C22.8594 110.4 29.7594 114.2 35.1594 118.2C34.9594 121.5 34.2594 124.4 32.5594 126.5C27.2594 133.1 19.2594 134.8 14.9594 135.7C13.1594 136.1 12.1594 136.3 11.4594 136.9C10.0594 138 9.35938 140 9.05938 141.2L0.759375 149.2C-0.140625 150.1 -0.240625 151.4 0.459375 152.4L2.45937 155C2.85937 155.6 3.55938 155.9 4.25938 156H4.45937C5.05937 156 5.65937 155.8 6.15937 155.3L14.0594 147.7C17.8594 147.2 32.1594 144.6 40.1594 132C41.5594 129.8 42.5594 127.6 43.2594 125.4C44.6594 127 45.7594 128.5 46.4594 129.7C51.4594 138.8 53.2594 145 55.5594 152.9C55.9594 154.1 56.2594 155.4 56.6594 156.8C58.3594 162.6 61.4594 164.8 63.7594 166.5C65.6594 167.9 66.6594 168.6 66.8594 171.1C67.3594 178.3 76.0594 190.9 78.5594 194.4C78.4594 195.9 78.2594 198.5 78.7594 200.2C79.1594 201.7 85.4594 210.5 97.4594 226.2L98.0594 226.9L98.9594 227.1C99.1594 227.1 100.359 227.4 103.059 227.4C104.659 227.4 106.359 227.3 108.259 227.2C114.859 226.7 127.159 221.1 129.859 217.5C130.759 216.3 131.359 215.9 131.559 215.8H131.659C131.659 215.8 132.359 215.7 133.159 215.7C133.559 215.7 134.059 215.7 134.359 215.8C134.559 215.8 134.759 215.9 134.859 215.9C135.759 215.9 137.059 215.9 145.759 208.3C147.659 206.6 153.959 201.1 154.759 199.5C155.259 198.6 155.259 197.7 155.059 196.8C155.859 196.7 156.659 196.5 157.459 196.3C158.559 196 160.659 195.3 168.759 181.6C172.559 175.3 176.359 168.2 176.859 167C177.659 165 176.459 163.2 175.259 161.2C174.159 159.4 172.959 157.4 173.259 155.8C173.759 153.6 180.059 145.4 186.259 138.3C186.559 138.3 186.859 138.4 187.159 138.4C188.259 138.4 189.759 138.2 191.459 137.8C194.959 137 200.059 132.6 203.659 129.1C211.559 121.4 211.459 119.8 211.359 119.1C211.259 118.1 210.759 117.3 210.159 116.6C211.259 116.5 212.359 116.3 213.259 115.9C214.059 115.6 215.859 114.8 219.959 104.8C220.359 103.8 223.759 95.4 223.759 92.5C223.759 92 223.759 91.5 223.659 91.1C224.559 90.7 225.459 90.2 226.259 89.2C226.859 88.5 228.159 86.9 228.959 74.8C229.059 70.1 229.359 62.8 228.959 60.9ZM85.1594 48.7C86.5594 48.1 88.3594 49.5 88.0594 51.1C87.7594 52.7 88.0594 53.2 86.9594 53.8C85.9594 54.3 84.7594 53.2 83.5594 52.5C82.7594 52 83.8594 49.2 85.1594 48.7ZM42.9594 88.5C39.4594 101.6 44.0594 112.5 41.2594 123.4C40.6594 125.8 39.6594 128.3 38.0594 130.7C29.5594 144.1 12.9594 145.4 12.9594 145.4L4.45937 153.6L2.45937 151L11.2594 142.5C11.2594 142.5 11.6594 139.9 12.9594 138.9C14.2594 137.9 26.8594 137.6 34.4594 128.1C36.2594 125.9 37.0594 123.1 37.4594 120C38.6594 109.9 34.3594 96.3 38.3594 86.6C39.3594 84.2 40.4594 81.9 41.7594 79.8C42.6594 78.4 43.5594 77 44.5594 75.7C46.0594 73.7 47.6594 71.9 49.2594 70.2C50.9594 68.5 52.6594 67 54.3594 65.6C55.5594 64.7 56.6594 63.8 57.8594 63.1C58.4594 62.7 59.0594 62.4 59.6594 62C60.8594 61.3 61.9594 60.7 63.1594 60.2C63.4594 60.1 63.7594 60 64.0594 59.9H64.3594C64.5594 59.9 64.6594 59.8 64.8594 59.8H65.0594C65.2594 59.8 65.4594 59.8 65.5594 59.9L65.7594 60C65.9594 60.1 66.0594 60.1 66.1594 60.2L66.2594 60.3C66.4594 60.4 66.5594 60.5 66.7594 60.7V60.8C66.8594 60.9 66.9594 61.1 67.0594 61.2L67.1594 61.4C67.2594 61.5 67.2594 61.7 67.2594 61.8V62C67.2594 62.2 67.2594 62.4 67.2594 62.6C67.2594 62.7 67.1594 62.9 66.9594 63C66.7594 63.2 66.5594 63.4 66.2594 63.6C65.8594 63.9 65.2594 64.3 64.5594 64.8C64.0594 65.1 63.6594 65.4 63.0594 65.8C62.5594 66.1 61.9594 66.5 61.3594 66.9C60.7594 67.3 60.1594 67.7 59.4594 68.2C58.4594 68.9 57.4594 69.6 56.4594 70.4C54.7594 71.7 52.9594 73.2 51.2594 74.9C50.5594 75.6 49.9594 76.3 49.2594 77C46.5594 80.1 44.1594 84 42.9594 88.5ZM62.2594 34.5C61.8594 41.7 71.1594 50.4 69.3594 50.2C67.5594 50 66.8594 49.7 62.4594 43.6C53.6594 31.5 56.6594 30.9 58.0594 30C59.7594 29 63.8594 28.3 67.4594 27.9C72.5594 27.4 75.6594 28 81.4594 29.2C82.5594 29.4 80.9594 32.1 78.3594 31.2C72.6594 29.5 62.5594 29.1 62.2594 34.5ZM84.9594 65.4C84.7594 66.2 84.9594 67 83.9594 67.5C82.9594 68 80.0594 67.3 80.6594 64.2C80.9594 63 82.1594 61.3 83.0594 61C83.9594 60.7 85.6594 61.7 86.1594 61.8C87.0594 61.9 85.0594 64.6 84.9594 65.4ZM92.1594 57.9C91.1594 58.6 89.0594 60.1 86.2594 59.6C83.4594 59.1 82.0594 57.8 80.0594 57.9C78.0594 58 77.2594 59.8 75.8594 59.6C74.3594 59.4 72.7594 57 74.5594 55.2C75.3594 54.4 78.3594 53.1 80.4594 53.2C82.5594 53.4 84.2594 55 86.0594 55.2C88.2594 55.5 90.0594 54.2 91.3594 54.5C92.4594 54.8 93.0594 57.2 92.1594 57.9ZM205.759 32.9C209.159 31.8 222.159 46.9 220.759 51.6C219.259 56.3 204.559 65.9 201.659 65.3C198.759 64.8 197.459 60.8 196.759 57.9C195.859 54.6 202.359 34 205.759 32.9ZM190.959 95.9C186.959 99.5 173.459 98.9 169.359 94.4C165.959 90.7 174.259 65.6 181.159 62.5C186.559 60.1 193.859 64.2 195.659 66.5C198.359 69.9 194.959 92.3 190.959 95.9ZM175.259 27.4C178.659 24 194.959 24.2 197.559 28.6C200.159 33 192.659 55.1 190.959 56.8C189.359 58.5 180.259 58.1 179.459 56.8C177.859 54.2 171.859 30.8 175.259 27.4ZM166.859 32.9C171.359 33.2 175.559 57.5 175.059 59C174.559 60.5 170.159 66.4 168.459 67.3C166.059 68.6 150.659 60.2 150.159 56.5C149.659 52.9 158.259 32.3 166.859 32.9ZM139.359 113.7C136.659 111.6 136.859 95.6 139.359 93.5C141.859 91.4 160.659 91.2 162.359 93.5C164.059 95.8 161.459 112 160.359 112.5C156.659 114.4 142.059 115.9 139.359 113.7ZM159.059 129.5C156.759 132.3 140.559 138.7 138.559 136C136.459 133.3 137.459 118.9 140.159 118.1C142.859 117.3 158.659 115.7 159.959 118.1C161.359 120.5 159.059 129.5 159.059 129.5ZM139.559 86.4C138.059 83.5 142.759 67 146.659 64.6C150.559 62.2 166.059 71.2 166.759 73.3C167.459 75.4 164.259 87.5 162.959 87.9C160.859 88.5 141.059 89.4 139.559 86.4ZM139.259 10.8C150.059 5.3 159.159 8.1 159.159 8.1C159.159 8.1 146.659 11.1 140.259 15.7C134.459 19.9 129.159 26.3 129.159 26.3C129.159 26.3 129.959 15.5 139.259 10.8ZM100.859 217.3C95.9594 216.9 98.0594 203.1 102.959 200.8C107.859 198.5 115.559 197.2 117.159 198.2C118.759 199.3 117.559 201.6 116.059 203.3C114.559 205.1 103.559 217.6 100.859 217.3ZM128.259 213.2C127.059 215.8 111.259 223.9 109.059 219.9C106.859 215.9 118.659 205.6 121.559 204.4C125.359 202.9 127.259 203.1 129.159 205C130.959 207 129.459 210.7 128.259 213.2ZM120.659 192.3C116.259 194.6 108.959 196.5 107.159 193.1C105.359 189.8 117.759 175.2 120.559 173.7C125.259 171.2 130.759 175 131.459 178.3C132.159 181.6 125.059 190 120.659 192.3ZM148.859 197.2C148.359 200.2 138.859 209.5 135.659 209.3C132.459 209.1 132.659 204.4 134.159 200.9C135.659 197.5 138.859 194.4 141.959 192.7C144.759 191.3 149.359 194.1 148.859 197.2ZM155.459 192.2C152.459 194.1 146.359 190.6 146.659 187.7C147.159 183.1 149.359 176.7 151.759 175C154.259 173.3 161.759 168.6 164.259 171.8C166.759 175 158.459 190.3 155.459 192.2ZM125.959 163.5L120.159 151.9L167.859 156.2L171.459 163.4H125.959V163.5ZM175.859 128.6C173.559 129.8 165.059 129.9 164.359 127.9C163.059 124.2 164.859 103.1 169.359 101.4C173.859 99.7 183.859 101.9 185.759 106.5C187.659 111.1 178.059 127.4 175.859 128.6ZM189.559 134.2C187.559 134.2 181.459 131.8 181.259 129.4C181.059 127.1 186.859 116.8 189.559 114.7C192.259 112.6 203.459 114.6 205.259 118C207.159 121.6 191.559 134.2 189.559 134.2ZM210.159 111.2C207.259 112.7 194.959 112.9 193.259 110C191.559 107.1 196.459 96.7 198.759 95.5C203.659 92.9 216.359 90.4 217.559 92.8C218.759 95.3 213.059 109.7 210.159 111.2ZM221.159 84.7C218.259 88.4 200.759 90.3 199.159 88.5C197.659 86.7 199.959 74.4 202.259 71.7C205.859 67.6 217.659 59 221.159 60.1C226.459 61.9 224.159 81 221.159 84.7Z" fill="#BE3532"/>
</svg>
