<svg width="493" height="391" viewBox="0 0 493 391" fill="none" xmlns="http://www.w3.org/2000/svg">
<rect width="493" height="391" fill="#D4D3D3"/>
<path d="M1.82323 14.3421V15.4744C1.82323 17.4244 2.5148 18.4308 3.96082 18.4308C5.40683 18.4308 6.03553 17.4244 6.03553 15.0969C6.03553 12.7695 5.53257 11.8259 3.45785 10.2533C1.32027 8.61783 0.31435 7.61136 0.31435 4.78069C0.31435 2.32744 1.06879 -7.67869e-06 4.02369 -7.67869e-06C6.78997 -7.67869e-06 7.60728 1.82422 7.60728 4.34037V5.22102H5.72118V4.40326C5.72118 2.70486 5.40683 1.6355 3.96082 1.6355C2.57767 1.6355 2.20045 2.89357 2.20045 4.46617C2.20045 6.41619 2.57767 7.10814 4.40091 8.42912C7.04145 10.5049 7.92163 11.5743 7.92163 14.8453C7.92163 17.6131 7.16719 20.0663 3.96082 20.0663C0.943051 20.0663 -7.4947e-09 18.0534 -7.4947e-09 15.4744V14.3421H1.82323V14.3421Z" transform="translate(56.2515 340.934)" fill="#A2A1A1"/>
<path d="M8.23598 5.03231V15.034C8.23598 18.4308 6.85284 20.1292 4.02369 20.1292C1.00592 20.1292 4.79661e-07 18.1792 4.79661e-07 15.034V4.9694C4.79661e-07 1.76131 1.44601 3.83935e-06 4.14942 3.83935e-06C7.04145 0.0629077 8.23598 2.07583 8.23598 5.03231ZM1.8861 4.9694V15.2227C1.8861 17.5502 2.76628 18.4937 4.08656 18.4937C5.53257 18.4937 6.28701 17.6131 6.28701 15.1598V4.9694C6.28701 2.76777 5.53257 1.6984 4.08656 1.6984C2.57767 1.7613 1.8861 2.76777 1.8861 4.9694Z" transform="translate(68.5111 340.808)" fill="#A2A1A1"/>
<path d="M0 3.83935e-06H6.66423V1.7613H1.8861V8.42911H6.34988V10.1904H1.8861V19.6889H0V3.83935e-06Z" transform="translate(81.5881 341.122)" fill="#A2A1A1"/>
<path d="M3.20637 1.7613H9.59321e-07V0H8.23598V1.7613H5.09248V19.626H3.20637V1.7613Z" transform="translate(91.5845 341.059)" fill="#A2A1A1"/>
<path d="M2.70341 19.5631L9.59321e-07 3.83935e-06H2.01184C2.64054 4.9065 3.70933 13.5243 3.89794 16.4808C4.14942 13.5243 5.59544 4.71779 6.28701 3.83935e-06H8.23598C8.92755 4.71779 10.3736 13.084 10.5622 16.4179H10.625C10.8137 13.1469 12.0082 4.9065 12.6369 3.83935e-06H14.5859L11.5681 19.5631H9.49338C8.86468 14.9082 7.54441 6.60491 7.23006 3.52262C6.78997 6.91943 5.59544 14.9082 4.841 19.5631H2.70341Z" transform="translate(103.215 341.122)" fill="#A2A1A1"/>
<path d="M2.89203 13.084L1.8861 19.5631H-1.91864e-06L3.20638 3.83935e-06H5.84692L9.2419 19.5631H7.29293L6.22414 13.084H2.89203ZM6.03553 11.3856C5.28109 6.85653 4.77813 3.4597 4.58952 1.6984H4.52665C4.46378 3.20809 3.70934 7.67428 3.20638 11.3856H6.03553Z" transform="translate(120.065 341.122)" fill="#A2A1A1"/>
<path d="M0 3.83935e-06H3.26924C6.22414 3.83935e-06 7.60728 1.32099 7.60728 4.46618V5.40974C7.60728 7.98879 6.72709 9.12105 5.59543 9.56138C6.85283 10.0017 7.41867 10.9453 7.41867 13.5872C7.41867 15.2856 7.41867 18.3679 7.60728 19.626H5.78405C5.53257 18.3679 5.59543 15.0969 5.59543 13.7131C5.59543 11.134 5.21821 10.3791 3.26924 10.3791H1.94897V19.626H0.0628691V3.83935e-06H0ZM1.8861 8.74363H3.26924C5.21821 8.74363 5.65831 7.54845 5.65831 5.47263V4.59198C5.65831 2.70486 5.15534 1.63551 3.08063 1.63551H1.82323V8.74363H1.8861Z" transform="translate(133.456 341.122)" fill="#A2A1A1"/>
<path d="M6.28701 9.9388H1.88611V17.8647H6.85284L6.60136 19.5631H3.83729e-06V3.83935e-06H6.53849V1.7613H1.88611V8.3033H6.28701V9.9388Z" transform="translate(145.778 341.122)" fill="#A2A1A1"/>
<path d="M3.20638 1.7613H-1.91864e-06V0H8.23598V1.7613H5.09248V19.626H3.26924V1.7613H3.20638Z" transform="translate(161.559 341.059)" fill="#A2A1A1"/>
<path d="M1.91864e-06 3.83935e-06H3.26924C6.22414 3.83935e-06 7.60728 1.32099 7.60728 4.46618V5.40974C7.60728 7.98879 6.7271 9.12105 5.59544 9.56138C6.85284 10.0017 7.41867 10.9453 7.41867 13.5872C7.41867 15.2856 7.41867 18.3679 7.60728 19.626H5.78405C5.53257 18.3679 5.59544 15.0969 5.59544 13.7131C5.59544 11.134 5.21822 10.3791 3.26924 10.3791H1.94897V19.626H0.0628662V3.83935e-06H1.91864e-06ZM1.8861 8.74363H3.26924C5.21822 8.74363 5.65831 7.54845 5.65831 5.47263V4.59198C5.65831 2.70486 5.15534 1.63551 3.08063 1.63551H1.82323V8.74363H1.8861Z" transform="translate(173.567 341.122)" fill="#A2A1A1"/>
<path d="M2.89203 13.084L1.8861 19.5631H0L3.20638 3.83935e-06H5.84692L9.2419 19.5631H7.29293L6.22413 13.084H2.89203ZM6.03553 11.3856C5.28109 6.85653 4.77813 3.4597 4.58952 1.6984H4.52664C4.46377 3.20809 3.70934 7.67428 3.20638 11.3856H6.03553Z" transform="translate(185.009 341.122)" fill="#A2A1A1"/>
<path d="M1.8861 3.83935e-06V19.5631H1.91864e-06V3.83935e-06H1.8861Z" transform="translate(198.401 341.122)" fill="#A2A1A1"/>
<path d="M1.91864e-06 19.5631V3.83935e-06H2.26332L5.72117 12.5179C6.16126 14.0276 6.34988 15.2227 6.53849 15.9776H6.60136C6.47562 13.3356 6.47562 10.5678 6.47562 7.35974V3.83935e-06H8.23598V19.5631H6.03552L2.13758 5.34683C1.8861 4.34037 1.69749 3.58552 1.63462 3.08229C1.76036 5.40973 1.82323 8.68073 1.82323 12.2033V19.5631H1.91864e-06Z" transform="translate(205.631 341.122)" fill="#A2A1A1"/>
<path d="M1.88609 3.83935e-06V19.5631H-7.67457e-06V3.83935e-06H1.88609Z" transform="translate(219.148 341.122)" fill="#A2A1A1"/>
<path d="M-7.67457e-06 19.5631V3.83935e-06H2.26332L5.72117 12.5179C6.16126 14.0276 6.34989 15.2227 6.5385 15.9776H6.60135C6.47561 13.3356 6.47562 10.5678 6.47562 7.35974V3.83935e-06H8.23598V19.5631H6.03552L2.13759 5.34683C1.88611 4.34037 1.69749 3.58552 1.63462 3.08229C1.76036 5.40973 1.82324 8.68073 1.82324 12.2033V19.5631H-7.67457e-06Z" transform="translate(226.378 341.122)" fill="#A2A1A1"/>
<path d="M8.04737 19.8776H6.53849C6.47562 19.5631 6.41274 18.5566 6.41274 18.1163C5.97265 19.626 4.841 20.1292 3.52073 20.1292C0.880189 20.1292 3.83729e-06 18.1163 3.83729e-06 15.034V5.09522C3.83729e-06 1.88712 1.32028 3.83935e-06 4.08656 3.83935e-06C7.3558 3.83935e-06 7.98449 2.26453 7.98449 4.84359V5.28392H6.09839V4.7807C6.09839 3.33391 5.97266 1.63551 4.02369 1.63551C2.57767 1.63551 1.82323 2.51615 1.82323 4.9065V15.034C1.82323 17.0469 2.3262 18.3679 3.83508 18.3679C5.72118 18.3679 6.03554 16.6066 6.03554 13.9646V10.8195H3.77221V9.18397H7.92164V19.8776H8.04737Z" transform="translate(239.455 340.808)" fill="#A2A1A1"/>
<path d="M2.89202 13.084L1.88611 19.5631H7.67457e-06L3.20637 3.83935e-06H5.84692L9.2419 19.5631H7.29292L6.22414 13.084H2.89202ZM6.03552 11.3856C5.28108 6.85653 4.77813 3.4597 4.58952 1.6984H4.52664C4.46377 3.20809 3.70933 7.67428 3.20637 11.3856H6.03552Z" transform="translate(257.75 341.122)" fill="#A2A1A1"/>
<path d="M0 19.5631V3.83935e-06H2.26333L5.72118 12.5179C6.16127 14.0276 6.34987 15.2227 6.53848 15.9776H6.60136C6.47562 13.3356 6.47561 10.5678 6.47561 7.35974V3.83935e-06H8.23598V19.5631H6.03553L2.13758 5.34683C1.8861 4.34037 1.6975 3.58552 1.63463 3.08229C1.76037 5.40973 1.82323 8.68073 1.82323 12.2033V19.5631H0Z" transform="translate(271.141 341.122)" fill="#A2A1A1"/>
<path d="M3.83729e-06 3.83935e-06H3.45786C7.67015 3.83935e-06 8.11024 2.70487 8.11024 5.72426V13.4614C8.11024 16.4808 7.67014 19.5631 3.26924 19.5631H3.83729e-06V3.83935e-06ZM1.88611 17.9276H3.14351C5.59544 17.9276 6.22414 16.6066 6.22414 13.9018V5.47263C6.22414 3.08228 5.78405 1.63551 3.20638 1.63551H1.94898V17.9276H1.88611Z" transform="translate(284.721 341.122)" fill="#A2A1A1"/>
<path d="M7.79589 14.2792V14.9082C7.79589 17.4873 7.35581 20.1292 3.89795 20.1292C0.565838 20.1292 0 17.676 0 14.8453V4.84359C0 1.6984 1.32028 7.67869e-06 3.89795 7.67869e-06C7.10433 7.67869e-06 7.67016 2.32744 7.67016 4.84359V5.59845H5.78405V4.7178C5.78405 3.0823 5.53257 1.6984 3.89795 1.6984C2.3262 1.6984 1.94898 3.01938 1.94898 4.78068V14.9082C1.94898 17.047 2.38906 18.3679 3.96081 18.3679C5.59543 18.3679 5.84691 16.9211 5.84691 14.9711V14.2163H7.79589V14.2792Z" transform="translate(303.52 340.871)" fill="#A2A1A1"/>
<path d="M8.23597 5.03231V15.034C8.23597 18.4308 6.85284 20.1292 4.02369 20.1292C1.00593 20.1292 7.67457e-06 18.1792 7.67457e-06 15.034V4.9694C7.67457e-06 1.76131 1.446 3.83935e-06 4.14942 3.83935e-06C7.04144 0.0629077 8.23597 2.07583 8.23597 5.03231ZM1.88611 4.9694V15.2227C1.88611 17.5502 2.76629 18.4937 4.08656 18.4937C5.53257 18.4937 6.28702 17.6131 6.28702 15.1598V4.9694C6.28702 2.76777 5.53257 1.6984 4.08656 1.6984C2.57768 1.7613 1.88611 2.76777 1.88611 4.9694Z" transform="translate(315.591 340.808)" fill="#A2A1A1"/>
<path d="M0 19.5631V3.83935e-06H2.26333L5.72118 12.5179C6.16127 14.0276 6.34987 15.2227 6.53848 15.9776H6.60136C6.47562 13.3356 6.47561 10.5678 6.47561 7.35974V3.83935e-06H8.23598V19.5631H6.03553L2.13758 5.34683C1.8861 4.34037 1.6975 3.58552 1.63463 3.08229C1.76037 5.40973 1.82323 8.68073 1.82323 12.2033V19.5631H0Z" transform="translate(328.668 341.122)" fill="#A2A1A1"/>
<path d="M1.82324 14.3421V15.4744C1.82324 17.4244 2.5148 18.4308 3.96082 18.4308C5.40683 18.4308 6.03552 17.4244 6.03552 15.0969C6.03552 12.7695 5.53257 11.8259 3.45786 10.2533C1.32028 8.61783 0.314358 7.61136 0.314358 4.78069C0.314358 2.32744 1.0688 -7.67869e-06 4.02369 -7.67869e-06C6.78997 -7.67869e-06 7.60727 1.82422 7.60727 4.34037V5.22102H5.72117V4.40326C5.72117 2.70486 5.40683 1.6355 3.96082 1.6355C2.57767 1.6355 2.20046 2.89357 2.20046 4.46617C2.20046 6.41619 2.57768 7.10814 4.40091 8.42912C7.04146 10.5049 7.92162 11.5743 7.92162 14.8453C7.92162 17.6131 7.16719 20.0663 3.96082 20.0663C0.943051 20.0663 7.67457e-06 18.0534 7.67457e-06 15.4744V14.3421H1.82324V14.3421Z" transform="translate(341.367 340.934)" fill="#A2A1A1"/>
<path d="M1.82324 3.83935e-06V15.2856C1.82324 16.9211 2.38907 18.1163 3.96082 18.1163C5.53257 18.1163 6.0984 17.047 6.0984 15.2856V3.83935e-06H7.9845V15.2227C7.9845 18.2421 6.60136 19.8147 3.96082 19.8147C1.32028 19.8147 -7.67457e-06 18.305 -7.67457e-06 15.2856V3.83935e-06H1.82324V3.83935e-06Z" transform="translate(353.69 341.122)" fill="#A2A1A1"/>
<path d="M-7.67457e-06 3.83935e-06H1.88609V17.9276H6.78997L6.5385 19.626H-7.67457e-06V3.83935e-06V3.83935e-06Z" transform="translate(366.892 341.122)" fill="#A2A1A1"/>
<path d="M3.20638 1.7613H3.83729e-06V0H8.23599V1.7613H5.09248V19.626H3.26924V1.7613H3.20638Z" transform="translate(374.626 341.059)" fill="#A2A1A1"/>
<path d="M1.88611 3.83935e-06V19.5631H7.67457e-06V3.83935e-06H1.88611Z" transform="translate(386.634 341.122)" fill="#A2A1A1"/>
<path d="M7.67457e-06 19.5631V3.83935e-06H2.26332L5.72117 12.5179C6.16126 14.0276 6.34986 15.2227 6.53847 15.9776H6.60137C6.47563 13.3356 6.47562 10.5678 6.47562 7.35974V3.83935e-06H8.23597V19.5631H6.03552L2.13757 5.34683C1.88609 4.34037 1.69748 3.58552 1.63461 3.08229C1.76035 5.40973 1.82322 8.68073 1.82322 12.2033V19.5631H7.67457e-06Z" transform="translate(393.864 341.122)" fill="#A2A1A1"/>
<path d="M7.98449 19.8776H6.53849C6.47562 19.5631 6.41274 18.5566 6.41274 18.1163C5.97265 19.626 4.841 20.1292 3.52073 20.1292C0.880189 20.1292 -1.53491e-05 18.1163 -1.53491e-05 15.034V5.09522C-1.53491e-05 1.88712 1.32026 3.83935e-06 4.08654 3.83935e-06C7.35578 3.83935e-06 7.98449 2.26453 7.98449 4.84359V5.28392H6.09839V4.7807C6.09839 3.33391 5.97266 1.63551 4.02369 1.63551C2.57767 1.63551 1.82323 2.51615 1.82323 4.9065V15.034C1.82323 17.0469 2.3262 18.3679 3.83508 18.3679C5.72119 18.3679 6.03554 16.6066 6.03554 13.9646V10.8195H3.77219V9.18397H7.92164V19.8776H7.98449Z" transform="translate(407.004 340.808)" fill="#A2A1A1"/>
<path d="M178.681 47.6182C178.241 45.5424 176.418 44.2214 175.224 43.4036C175.098 43.3407 174.972 43.2149 174.909 43.152C175.161 42.6488 175.601 41.894 175.915 41.3907C176.23 40.9504 176.481 40.4472 176.67 40.0697C177.235 39.0633 178.304 36.9246 168.748 25.2873C164.85 20.5067 150.076 10.0646 147.687 9.12106C146.178 8.49202 144.229 8.11459 143.223 7.92588C141.274 6.10167 134.107 0 122.161 0C118.075 0 113.862 0.754846 109.524 2.13873C91.0406 8.2404 89.2802 30.3196 88.6515 37.5536C88.6515 37.8681 88.5887 38.1826 88.5887 38.4342C88.2114 38.4342 87.7713 38.3713 87.2684 38.3084C86.5139 38.2455 85.6966 38.1826 84.9422 38.1826C84.6278 38.1826 84.3135 38.1826 83.9991 38.2455C81.9244 38.4342 80.9185 40.573 80.4156 42.7746C79.5982 42.3972 78.7181 42.1456 77.775 42.1456C77.5864 42.1456 77.3349 42.1456 77.1463 42.2085C75.826 42.3972 74.883 42.7746 74.1914 43.2778C72.9969 42.3343 71.0479 40.4472 69.9162 37.6794C69.4762 36.6729 69.2247 34.2197 69.0361 31.8293C68.4074 25.7906 67.7787 19.626 63.6921 19.3115C62.8119 19.2486 61.806 19.1228 60.8001 18.997C58.7254 18.7453 56.3992 18.4937 53.8844 18.4937C49.2949 18.4937 45.2083 19.3744 41.499 21.1986C40.7445 21.576 40.1787 22.2051 39.9901 22.9599C39.4871 24.7212 40.6188 26.6083 42.0019 28.81C42.5678 29.6906 43.4479 31.2003 43.7623 32.081C42.6306 31.8293 40.8703 31.1374 39.4243 30.5084C36.8466 29.439 34.3946 28.4954 32.5714 28.4954C31.6284 28.4954 30.8739 28.7471 30.3081 29.3132C14.5277 43.7811 5.97737 69.6974 8.17782 79.4475C8.86939 82.5927 10.504 83.725 11.8243 84.1653C17.9227 86.1153 23.2666 89.1347 27.4789 92.217C27.2903 94.7961 26.7874 97.0606 25.4042 98.6961C21.2548 103.854 15.0307 105.175 11.6357 105.93C10.1897 106.245 9.49809 106.37 8.93226 106.811C7.8006 107.691 7.29764 109.264 7.04616 110.145L0.57055 116.372C-0.121021 117.064 -0.183893 118.133 0.381938 118.888L1.89082 120.901C2.20517 121.341 2.70812 121.593 3.27396 121.656H3.3997C3.90266 121.656 4.34275 121.467 4.71997 121.153L10.9441 115.24C13.899 114.862 25.0899 112.787 31.314 102.974C32.3828 101.275 33.2001 99.5139 33.7031 97.8155C34.8347 99.0735 35.6521 100.206 36.2179 101.149C40.1158 108.257 41.499 113.101 43.3222 119.266C43.6366 120.209 43.888 121.216 44.2024 122.285C45.5855 126.814 47.9746 128.575 49.735 129.834C51.2438 130.903 51.9983 131.469 52.124 133.419C52.5012 139.017 59.2912 148.893 61.2402 151.661C61.1144 152.793 61.0516 154.869 61.3659 156.19C61.6803 157.385 66.5841 164.242 75.9518 176.445L76.3919 177.011L77.0834 177.137C77.272 177.2 78.2151 177.326 80.2898 177.326C81.4843 177.326 82.8675 177.263 84.3764 177.137C89.5317 176.76 99.088 172.419 101.226 169.526C101.917 168.582 102.357 168.268 102.546 168.142H102.609C102.609 168.142 103.175 168.079 103.803 168.079C104.18 168.079 104.495 168.079 104.683 168.142C104.809 168.142 104.935 168.205 105.123 168.205C105.878 168.205 106.884 168.205 113.611 162.292C115.12 160.971 120.024 156.631 120.652 155.372C121.03 154.681 121.03 153.989 120.904 153.234C121.533 153.171 122.161 153.045 122.79 152.856C123.67 152.605 125.242 152.101 131.655 141.408C134.61 136.501 137.564 130.966 137.942 130.022C138.57 128.513 137.627 127.066 136.684 125.493C135.804 124.109 134.861 122.537 135.113 121.341C135.49 119.58 140.394 113.227 145.235 107.691C145.486 107.691 145.675 107.754 145.926 107.754C146.806 107.754 147.938 107.566 149.321 107.251C152.087 106.622 156.048 103.225 158.877 100.457C165.039 94.4816 164.913 93.2235 164.85 92.6573C164.787 91.9025 164.41 91.2735 163.907 90.7073C164.787 90.6444 165.604 90.4557 166.359 90.2041C166.988 89.9525 168.371 89.3864 171.577 81.5234C171.892 80.7685 174.532 74.1636 174.532 71.962C174.532 71.5846 174.469 71.2071 174.406 70.8926C175.098 70.641 175.789 70.1378 176.418 69.3829C176.858 68.8797 177.864 67.6216 178.493 58.1231C178.807 54.7263 178.996 49.065 178.681 47.6182ZM66.4584 37.9939C67.5272 37.5536 68.9732 38.623 68.7217 39.881C68.4702 41.1391 68.7217 41.5165 67.8415 41.9569C67.0871 42.3343 66.0812 41.4536 65.201 40.9504C64.5723 40.573 65.3896 38.4342 66.4584 37.9939ZM33.5145 69.1313C30.8111 79.3846 34.3946 87.8767 32.1942 96.3687C31.6912 98.2558 30.9368 100.143 29.6794 102.093C23.078 112.535 10.0639 113.604 10.0639 113.604L3.3997 119.958L1.89082 117.945L8.80652 111.34C8.80652 111.34 9.12088 109.327 10.1268 108.509C11.1327 107.754 21.0033 107.503 26.9131 100.08C28.2963 98.3187 28.9878 96.18 29.2393 93.7896C30.1824 85.9266 26.8502 75.2959 29.9309 67.6845C30.6853 65.7974 31.6284 64.0361 32.6343 62.3377C33.3259 61.2054 34.0174 60.1361 34.8347 59.1296C35.9664 57.557 37.2238 56.1102 38.5441 54.7892C39.8643 53.4683 41.1846 52.2731 42.5678 51.2037C43.4479 50.5118 44.391 49.8198 45.334 49.2537C45.7741 48.9392 46.2771 48.6876 46.7172 48.373C47.6602 47.8069 48.5404 47.3666 49.4206 46.9892C49.6721 46.8634 49.9236 46.8005 50.1122 46.7376H50.3637C50.4894 46.7376 50.6151 46.6746 50.7409 46.6746H50.8037H50.9295C51.0552 46.6746 51.2438 46.6746 51.3696 46.7376L51.5582 46.8005C51.6839 46.8634 51.8097 46.8634 51.8725 46.9263L51.9983 46.9892C52.124 47.0521 52.2498 47.1779 52.3755 47.3037L52.4384 47.3666C52.5012 47.4924 52.5641 47.6182 52.627 47.6811L52.6898 47.8069C52.7527 47.9327 52.7527 47.9956 52.7527 48.1214V48.2472C52.7527 48.4359 52.7527 48.5618 52.7527 48.7505C52.7527 48.8763 52.6898 48.9392 52.5012 49.065C52.3755 49.1908 52.1869 49.3795 51.9354 49.5053C51.6211 49.7569 51.1181 50.0715 50.6151 50.386C50.2379 50.6376 49.8607 50.8892 49.4835 51.1408C49.0434 51.3924 48.6033 51.7069 48.1632 52.0215C47.7231 52.336 47.2201 52.6505 46.7172 53.0279C45.9627 53.5312 45.1454 54.1602 44.3281 54.7892C42.945 55.8586 41.5618 56.9909 40.2416 58.3119C39.7386 58.8151 39.1728 59.3812 38.6698 59.9474C36.3436 62.5893 34.3946 65.6087 33.5145 69.1313ZM48.5404 26.9228C48.2889 32.5213 55.519 39.3149 54.073 39.1891C52.6898 39.0633 52.1869 38.8117 48.6662 34.031C41.8133 24.5954 44.1395 24.0922 45.2712 23.4002C46.6543 22.5825 49.7978 22.0163 52.5641 21.7647C56.5249 21.3873 58.9768 21.8276 63.5035 22.7712C64.3837 22.9599 63.1263 25.0357 61.1144 24.3438C56.7135 23.0228 48.7919 22.7083 48.5404 26.9228ZM66.2698 51.0779C66.144 51.7069 66.2698 52.336 65.5153 52.7134C64.7609 53.0908 62.4347 52.5247 62.9377 50.1344C63.1263 49.1908 64.1322 47.8698 64.8238 47.6182C65.5153 47.3666 66.8356 48.1214 67.2757 48.2472C67.9044 48.373 66.3955 50.4489 66.2698 51.0779ZM71.8652 45.2279C71.1108 45.794 69.4133 46.9263 67.2757 46.5488C65.1381 46.1714 63.9436 45.165 62.4347 45.2279C60.9258 45.2908 60.2971 46.6746 59.1026 46.5488C57.9709 46.423 56.6507 44.5359 58.0967 43.0891C58.7254 42.4601 61.0516 41.4536 62.6862 41.5794C64.3208 41.7052 65.6411 42.9633 67.0242 43.0891C68.7846 43.2778 70.1049 42.3343 71.1736 42.5859C72.1796 42.8375 72.6197 44.6617 71.8652 45.2279ZM160.575 25.7277C163.278 24.9099 173.4 36.6729 172.269 40.3214C171.137 43.9698 159.632 51.4553 157.369 51.0779C155.042 50.6376 154.099 47.5553 153.533 45.2908C152.842 42.6488 157.871 26.5454 160.575 25.7277ZM149.07 74.8556C145.989 77.6862 135.427 77.183 132.22 73.7233C129.58 70.8926 135.993 51.2666 141.462 48.8134C145.675 46.9263 151.396 50.1344 152.779 51.9586C154.791 54.6005 152.15 72.0249 149.07 74.8556ZM136.747 21.3873C139.388 18.6824 152.15 18.8712 154.162 22.3309C156.174 25.7906 150.327 43.0262 149.07 44.3472C147.812 45.6682 140.771 45.3537 140.142 44.3472C138.822 42.3343 134.107 24.0922 136.747 21.3873ZM130.209 25.7277C133.666 25.9793 136.999 44.9133 136.621 46.1085C136.244 47.2408 132.786 51.8328 131.466 52.5876C129.643 53.657 117.572 47.0521 117.195 44.1585C116.754 41.2649 123.482 25.2244 130.209 25.7277ZM108.707 88.8202C106.632 87.1847 106.821 74.6668 108.707 73.0313C110.593 71.3958 125.368 71.2071 126.688 73.0313C128.008 74.8556 125.996 87.4363 125.116 87.8767C122.287 89.3234 110.845 90.4557 108.707 88.8202ZM124.11 101.086C122.35 103.288 109.713 108.257 108.078 106.182C106.507 104.106 107.198 92.8461 109.336 92.217C111.473 91.588 123.733 90.3299 124.802 92.217C125.871 94.1041 124.11 101.086 124.11 101.086ZM108.896 67.4958C107.764 65.2313 111.411 52.336 114.428 50.4489C117.509 48.5618 129.517 55.607 130.083 57.2425C130.649 58.878 128.134 68.3765 127.065 68.6281C125.493 69.1313 110.09 69.7604 108.896 67.4958ZM108.707 8.42911C117.195 4.15165 124.236 6.29038 124.236 6.29038C124.236 6.29038 114.491 8.61783 109.462 12.2033C104.872 15.4743 100.785 20.5066 100.785 20.5066C100.785 20.5066 101.414 12.1404 108.707 8.42911ZM78.7181 169.715C74.883 169.337 76.5176 158.643 80.3527 156.819C84.1878 154.995 90.1604 153.989 91.4178 154.806C92.6752 155.624 91.7322 157.511 90.6005 158.832C89.406 160.153 80.7928 169.903 78.7181 169.715ZM100.031 166.506C99.0879 168.519 86.7654 174.873 85.0679 171.727C83.3076 168.582 92.5495 160.531 94.8128 159.65C97.7677 158.455 99.2766 158.581 100.723 160.09C102.231 161.663 101.037 164.494 100.031 166.506ZM94.1841 150.151C90.7891 151.976 85.0679 153.422 83.6848 150.78C82.3016 148.201 91.9208 136.816 94.1212 135.621C97.7677 133.671 102.106 136.69 102.609 139.206C103.112 141.848 97.5791 148.327 94.1841 150.151ZM116.189 153.926C115.811 156.253 108.393 163.55 105.878 163.361C103.363 163.173 103.552 159.524 104.683 156.819C105.815 154.177 108.33 151.724 110.782 150.466C112.982 149.397 116.566 151.598 116.189 153.926ZM121.344 150.089C119.018 151.598 114.24 148.83 114.491 146.566C114.868 142.918 116.566 137.948 118.515 136.627C120.401 135.306 126.311 131.658 128.26 134.111C130.146 136.627 123.67 148.579 121.344 150.089ZM98.2706 127.695L93.6811 118.637L130.9 122.033L133.729 127.695H98.2706ZM137.187 100.395C135.427 101.338 128.763 101.401 128.197 99.8284C127.191 96.9348 128.574 80.454 132.095 79.133C135.615 77.7491 143.348 79.5104 144.857 83.1589C146.429 86.8073 139.01 99.5139 137.187 100.395ZM147.938 104.798C146.429 104.798 141.651 102.911 141.462 101.086C141.274 99.2622 145.863 91.2735 147.938 89.638C150.076 87.9396 158.752 89.5122 160.198 92.217C161.644 94.9219 149.447 104.798 147.938 104.798ZM164.033 86.8702C161.707 88.0025 152.15 88.1912 150.83 85.9266C149.51 83.5992 153.345 75.5475 155.105 74.6039C158.94 72.5281 168.811 70.5781 169.754 72.5281C170.697 74.4152 166.296 85.675 164.033 86.8702ZM172.583 66.1119C170.257 69.0055 156.614 70.5152 155.42 69.0684C154.225 67.6216 156.048 57.9973 157.871 55.9844C160.638 52.7763 169.88 46.0456 172.583 46.9263C176.733 48.373 174.909 63.2184 172.583 66.1119Z" transform="translate(143.322 30)" fill="#A2A1A1"/>
<path d="M22.4446 34.7535C19.0496 28.9034 1.57175 26.0099 1.32027 13.1146C1.19453 7.32741 3.01776 3.36447 4.40091 0.596705C4.77813 -0.0952375 4.33804 -0.221038 3.89794 0.408001C2.38906 2.54673 1.19915e-07 7.95645 1.19915e-07 12.8C1.19915e-07 22.4872 8.04737 26.8905 14.4601 30.4131C18.4209 32.5519 21.8159 34.439 21.8159 36.7664C21.8159 36.8922 21.9417 36.9551 22.0674 36.8922C22.3189 36.8293 22.5075 36.5148 22.6332 36.2003C22.759 35.9487 22.8847 35.5083 22.4446 34.7535Z" transform="translate(60.4009 264.978)" fill="#A2A1A1"/>
<path d="M6.16127 14.1411C3.20637 11.6879 2.01184 8.47975 1.2574 3.57325C1.2574 3.57325 1.13166 2.5668 1.13166 2.18938C1.06879 1.18291 1.2574 0.428065 1.32027 0.239353C1.38314 0.0506415 1.13166 -0.0751585 0.943051 0.0506491C0.31435 0.679688 7.4947e-09 1.49743 7.4947e-09 2.37808C7.4947e-09 2.81841 0.0628701 3.57326 0.12574 3.69906C0.943051 9.2346 2.5148 12.5056 5.4697 15.0218C9.80773 18.7331 17.0378 20.6831 21.9417 20.6831C23.2619 20.6831 24.5822 20.5573 25.9025 20.2428C26.4054 20.117 26.4054 19.6766 25.7767 19.7395C25.148 19.8024 24.5193 19.8025 23.8906 19.8025C20.8729 19.8654 12.574 19.425 6.16127 14.1411Z" transform="translate(56 298.046)" fill="#A2A1A1"/>
<path d="M14.0353 13.4733C14.0353 13.4733 13.0294 13.7879 11.4576 13.725C10.7032 13.725 5.61069 13.725 4.41616 13.725C3.15876 13.725 2.71867 13.0959 2.71867 12.404C2.71867 12.2782 2.78154 11.9637 2.84441 11.5862C3.15876 9.95073 3.97607 6.2394 4.03894 4.16357C4.10181 1.77322 2.97015 0.13772 1.83849 0.0119126C1.14692 -0.0509912 0.518215 0.137732 0.0781249 0.515155C-0.110485 0.640962 0.0781244 0.829674 0.266735 0.829674C2.08997 0.829674 2.84441 2.02485 2.84441 4.35229C2.84441 6.0507 2.27858 8.62975 1.96423 10.3282C1.71275 11.5233 1.58701 12.0895 1.58701 12.4669C1.58701 13.033 1.77562 14.8572 4.47903 14.8572C9.19429 14.8572 10.9546 14.983 11.9606 14.8572C13.4066 14.7314 14.0982 14.0395 14.2239 13.7879C14.2868 13.4733 14.0353 13.4733 14.0353 13.4733Z" transform="translate(83.7105 267.324)" fill="#A2A1A1"/>
<path d="M20.6843 61.3313C16.3462 61.3313 9.2419 59.6328 4.96674 55.9844C2.07471 53.5312 0.817311 50.3231 0.0628701 45.4166C0.0628701 45.4166 1.19915e-07 44.5988 1.19915e-07 44.2214C1.19915e-07 43.152 0.628701 42.523 1.63462 42.0198C5.28109 40.6359 8.99042 40.1326 9.80773 40.0068C11.0023 40.0068 11.3795 40.8246 11.5052 41.4536C12.7626 45.9827 13.1398 50.2602 19.1125 50.2602C23.3877 50.2602 26.2168 47.8069 26.2168 45.4166C26.2168 38.0568 4.33804 36.6729 4.33804 21.4502C4.33804 11.8259 12.9512 7.67869e-06 22.3818 7.67869e-06C28.6688 7.67869e-06 44.2605 5.15812 44.2605 13.5243C44.2605 16.355 42.4373 21.0728 41.4314 22.7712C40.8027 24.0293 40.3626 24.3438 39.2309 24.4067C37.8478 24.5954 32.3152 24.5954 30.8692 24.5954C29.6118 24.5954 29.1717 24.1551 29.1717 23.4002C29.1717 22.6454 30.4291 18.0534 30.4291 15.2856C30.4291 11.763 28.543 10.5678 26.5312 10.5678C21.8159 10.5678 18.1066 17.0469 18.1066 20.5696C18.1066 29.9422 39.7339 29.7535 39.7339 43.9069C39.7339 53.2796 30.1776 61.3313 20.6843 61.3313Z" transform="translate(59.1435 254.693)" fill="#A2A1A1"/>
<path d="M6.28701 0.0432464C5.84692 0.420669 5.53257 0.923896 5.28109 1.55293C4.08656 5.70459 2.20045 11.8063 0.251482 17.7192C0.188612 17.845 0.188609 18.0966 0.125739 18.4741C0.0628691 18.9773 0.062871 19.4805 9.59321e-07 19.9209C9.59321e-07 20.2354 0.125742 20.2983 0.251482 19.9838C2.57768 13.1273 5.09248 5.20137 6.53849 0.106154C6.53849 0.106154 6.41275 -0.0825613 6.28701 0.0432464Z" transform="translate(121.762 270.249)" fill="#A2A1A1"/>
<path d="M2.46199 41.7174C1.64468 41.0884 1.3932 39.8303 1.3932 38.8239V36.119C1.3932 27.8786 1.64468 12.3413 1.83329 2.40254C1.89616 1.45898 1.95903 0.892842 2.21051 0.389611C2.33625 0.137996 2.08477 -0.0507198 1.89616 0.012184C1.14172 0.452511 0.638762 1.27026 0.513022 2.27673C0.513022 2.27673 0.261538 7.62355 0.135797 12.3413C-0.0528128 20.0156 0.0100592 31.5899 0.0100592 36.748L0.0729283 38.8868C0.198669 40.0819 0.513019 41.7174 1.64468 42.5981C3.97087 44.611 11.1381 48.1336 14.2816 48.1336C14.9103 48.1336 15.539 48.0707 16.1048 47.7562C16.2934 47.6304 16.2305 47.4417 15.9162 47.3788C15.7276 47.3788 15.3504 47.5046 13.8415 47.253C8.49752 46.1836 4.22236 43.2271 2.46199 41.7174Z" transform="translate(104.526 269.84)" fill="#A2A1A1"/>
<path d="M12.1586 11.5042C8.88934 10.4348 4.73992 8.29609 2.72808 6.59769C1.97363 5.96865 1.53355 5.21382 1.34494 3.70413C1.2192 2.94928 1.09346 1.6912 0.967716 0.244417C0.967716 -0.0701025 0.716237 -0.0701064 0.590497 0.181509C0.464757 0.621836 0.276144 0.936355 0.150403 1.43959C0.0246633 1.87991 -0.0382049 2.25734 0.0246652 2.76057C0.0246652 2.76057 0.0875334 3.5154 0.150403 3.82992C0.339014 5.52833 0.841976 6.5348 1.91077 7.47836C4.92853 10.0574 12.0328 13.3284 15.4278 13.3284C16.1823 13.3284 16.8738 13.1397 17.5654 12.8252C17.8169 12.6994 17.6912 12.4478 17.5025 12.4478C17.3139 12.4478 16.9996 12.4478 16.4966 12.4478C14.9877 12.5107 13.9818 12.0703 12.1586 11.5042Z" transform="translate(128.024 304.771)" fill="#A2A1A1"/>
<path d="M6.66423 0.176839C6.7271 -0.0118721 6.60136 -0.0747606 6.34988 0.113951C6.0984 0.302663 5.59544 0.805893 5.40683 1.68655C4.08656 7.28499 2.13758 14.5189 0.125738 20.8722C0.0628682 21.0609 0 21.4384 0 21.7529C0 22.1303 0 22.5706 0 22.948C0 23.1997 0.125742 23.1997 0.188612 23.0109C2.57768 15.8399 5.09248 6.84465 6.66423 0.176839Z" transform="translate(143.515 270.305)" fill="#A2A1A1"/>
<path d="M46.3981 0.188712C48.2213 0.188712 54.194 3.71133 55.4514 4.9065C56.0801 5.53554 56.5202 6.47909 56.5202 7.29684C56.5202 13.7759 45.8952 39.6294 40.7398 45.2908C40.1111 45.9198 39.1681 46.2972 38.225 46.2972C35.1444 46.2972 28.3544 43.0891 25.5253 40.7617C24.7708 40.1326 24.3307 39.3778 24.1421 37.8681C23.8906 35.7923 23.3248 30.5713 23.1362 26.168C23.1362 25.6019 23.0733 25.4132 22.9476 25.4132C22.8847 25.4132 22.6961 25.6019 22.5704 26.0422C20.5585 32.9616 17.8551 41.6423 15.5918 45.102C15.2146 45.7311 14.3344 46.2972 13.3913 46.2972C10.7508 46.2972 3.64647 42.9633 1.38314 40.9504C0.565833 40.3214 0.125739 39.0633 -9.59321e-07 38.0568V35.352C-9.59321e-07 27.1115 0.565833 11.5743 0.754443 1.63549C0.817313 0.754838 1.57175 7.67869e-06 2.57767 7.67869e-06C5.09247 0.0629115 9.93347 0.566138 12.574 1.19518C13.4542 1.38389 14.1458 2.07583 14.1458 3.08229C14.1458 3.96295 11.8824 31.2632 11.8824 33.0874C11.8824 33.4648 11.8824 33.7164 12.0711 33.7164C12.1339 33.7164 12.3225 33.4648 12.5111 33.0874C15.1517 26.5454 20.4956 10.1904 22.9476 1.63549C23.3248 0.566127 24.1421 0.0628962 25.148 0.0628962C27.0341 0.0628962 32.1266 0.943561 33.5726 1.5097C34.4528 1.88712 35.0186 2.57906 35.0186 3.39681C34.6414 14.0905 34.3899 29.9422 34.3899 32.8987C34.3899 33.4648 34.4528 33.6536 34.6414 33.6536C34.7043 33.6536 34.83 33.5906 35.0186 33.2132C38.0364 26.9228 42.6259 11.134 44.8264 1.5726C45.0778 0.817757 45.7065 0.188712 46.3981 0.188712Z" transform="translate(107.113 269.16)" fill="#A2A1A1"/>
<path d="M2.70341 43.9575C1.69749 43.5172 1.2574 42.6994 1.2574 41.7559C1.2574 41.1268 1.2574 40.4349 1.32027 39.6172C1.50888 31.3139 5.65831 8.29104 8.11024 0.239353C8.17311 0.0506415 7.9845 -0.0751585 7.79589 0.0506491C7.41867 0.428072 7.16719 0.805495 6.97858 1.30873C4.52665 8.85719 -1.91864e-06 33.8929 -1.91864e-06 41.7559C-1.91864e-06 43.2027 0.754445 44.3979 2.13759 45.0269C3.83508 45.7817 9.99634 47.4801 11.6938 47.4801C12.3225 47.4801 12.8884 47.3543 13.3285 46.914C13.5171 46.7253 13.4542 46.5366 13.2656 46.5366C10.8765 46.4737 5.59544 45.1527 2.70341 43.9575Z" transform="translate(161.559 270.682)" fill="#A2A1A1"/>
<path d="M10.7508 13.4252C3.7722 13.6768 1.38314 9.46229 1.13166 5.93967C1.00592 4.05256 1.32027 2.22834 1.94897 0.467029C2.13758 -0.0991059 1.94897 -0.161998 1.57175 0.341232C0.565827 1.91383 -3.83729e-06 3.61223 -3.83729e-06 5.37354C-3.83729e-06 9.39939 1.8861 12.3559 5.09248 13.6139C6.16127 14.0543 7.3558 14.243 8.73894 14.3059H8.86468C10.5622 14.3059 12.0711 13.9914 13.3913 13.4252C13.7685 13.2365 13.7057 13.1107 13.3285 13.1736C12.5111 13.2994 11.631 13.3623 10.7508 13.4252Z" transform="translate(169.229 254.037)" fill="#A2A1A1"/>
<path d="M10.4993 65.7345C9.05329 65.7345 3.08064 64.099 1.44602 63.3442C0.440094 62.9038 1.91864e-06 62.0861 1.91864e-06 61.1425C1.91864e-06 53.5312 4.46378 28.6212 6.91571 21.0728C7.16719 20.255 8.11024 19.626 9.11616 19.626C10.3736 19.626 15.8433 20.8841 18.4838 21.8905C19.2382 22.1422 19.7412 22.7083 19.7412 23.526C19.7412 23.7147 19.6783 24.1551 19.6783 24.1551C16.8492 35.981 13.5799 53.4054 12.3225 64.1619C12.0082 65.0426 11.3166 65.7345 10.4993 65.7345ZM24.0164 7.54846C24.0164 12.3921 20.6843 15.7889 15.2146 15.7889C9.93347 15.7889 7.60728 12.2663 7.60728 8.0517C7.60728 4.8436 9.61913 2.39034 11.5052 0.880646C12.1339 0.440319 13.5171 -3.83935e-06 14.3972 -3.83935e-06C18.7353 -3.83935e-06 24.0164 2.20163 24.0164 7.54846Z" transform="translate(164.765 249.786)" fill="#A2A1A1"/>
<path d="M10.7508 46.2972C8.29885 45.9198 3.7722 44.473 2.5148 43.9069C1.8861 43.5295 1.19453 43.152 1.19453 41.9569C1.19453 41.8311 1.38314 40.6359 1.38314 40.3214C1.50888 39.3149 2.5148 32.5842 4.84099 18.8083C5.28108 16.0405 5.72118 13.713 5.78405 13.084C5.84692 12.7066 5.90979 12.2662 5.65831 11.9517C5.40683 11.6372 4.52664 11.763 3.39498 11.5743C2.20045 11.3856 2.01184 10.3162 2.01184 9.37268C2.01184 8.55493 1.94897 5.15812 2.13758 1.76131C2.13758 1.5726 2.38906 0.440335 2.38906 0.251623C2.45194 7.66744e-06 2.20045 -0.0629077 2.07471 0.0629C1.44601 0.691938 1.06879 1.50969 1.06879 2.32744C0.943049 4.02585 0.880177 7.35974 0.880177 9.75009C0.880177 11.3856 2.07471 12.6437 3.7722 12.6437C3.7722 12.6437 4.52665 12.5808 4.71526 12.8953C4.841 13.2098 4.08656 16.7953 3.45785 20.4437C1.19453 33.8423 0 40.8246 0 41.831C0 43.7811 1.32027 44.5359 1.8861 44.8504C3.45785 45.6053 9.61913 47.3666 11.6938 47.3666C12.3854 47.3666 13.077 47.115 13.5799 46.6746C13.6428 46.6117 13.5799 46.423 13.4542 46.4859C12.9512 46.7376 11.9453 46.5488 10.7508 46.2972Z" transform="translate(185.638 270.796)" fill="#A2A1A1"/>
<path d="M3.90801 0.1258C2.83921 0.1258 1.58181 3.83935e-06 0.387278 3.83935e-06C0.261538 3.83935e-06 0.198671 0.0628962 0.135801 0.1258V0.251615C0.0729312 0.440327 0.0729331 0.566127 0.010063 0.754838C0.010063 0.817742 -0.052809 0.943561 0.135801 0.943561C0.638762 1.00647 1.3932 1.00647 1.95903 1.00647C2.83921 1.00647 3.59365 1.06936 4.15948 1.06936C4.85105 1.06936 5.54262 0.817742 6.04559 0.440319C6.17133 0.377415 6.17133 0.188708 6.04559 0.188708C5.54262 0.188708 4.78819 0.1258 3.90801 0.1258Z" transform="translate(208.638 282.622)" fill="#A2A1A1"/>
<path d="M0.834034 9.46901C1.5256 6.26091 2.46865 3.30443 3.91466 0.347954C4.10327 -0.0923731 3.91467 -0.0923808 3.72606 0.222138C1.71422 3.30443 0.896902 6.57542 0.0167207 9.5319C-0.0461494 9.78351 0.0795927 9.78353 0.205333 9.78353C0.331073 9.78353 0.393943 9.78353 0.519683 9.78353C0.708293 9.78353 0.771164 9.78353 0.834034 9.46901Z" transform="translate(193.292 257.804)" fill="#A2A1A1"/>
<path d="M3.19066 0.188704C2.62483 0.0628962 1.99612 0 1.87038 0C1.30455 0 0.675851 0.188704 0.110021 0.503223C-0.0157194 0.566127 -0.0785857 0.691946 0.172895 0.691946C0.801595 0.629042 1.30456 0.691938 1.93326 0.88065C2.49909 1.00646 3.31639 1.13226 3.63074 1.13226C4.32231 1.13226 4.95103 1.00647 5.45399 0.691946C5.57973 0.629042 5.45399 0.440335 5.13964 0.440335C4.69955 0.566142 3.75649 0.377415 3.19066 0.188704Z" transform="translate(213.631 264.631)" fill="#A2A1A1"/>
<path d="M26.4683 12.3921C23.8278 12.3921 21.1243 14.9082 21.1243 17.7389C21.1243 18.4937 21.5644 18.8082 22.5075 18.8082C24.1421 18.8082 25.9653 18.8082 27.0341 18.8711C28.2287 18.9341 28.6059 19.9405 28.6059 20.947C28.543 23.0228 28.2287 26.6712 27.8514 28.8729C27.6628 29.7535 26.7826 30.5084 25.7767 30.5084C24.5193 30.5084 22.1303 30.4454 19.9927 30.4454C19.1125 30.4454 18.2952 31.0745 18.1066 31.8922C16.2205 41.7682 13.9572 54.5376 12.3854 63.5329C12.1968 64.3506 11.3795 65.1055 10.4993 65.1055C8.67607 65.1055 2.70341 63.47 1.2574 62.7151C0.628699 62.3377 -1.91864e-06 61.8974 -1.91864e-06 60.7022C-1.91864e-06 59.0667 4.71525 32.1439 4.71525 31.7035C4.71525 30.6971 4.52665 30.1309 3.83508 30.1309H2.57768C1.50888 30.1309 0.880185 29.5019 0.880185 28.5583C0.880185 27.6777 0.880177 23.2744 1.06879 21.2615C1.06879 20.255 1.82323 19.2486 3.1435 19.2486H5.15534C6.22413 19.2486 6.97858 18.4308 7.16719 17.4244C8.99042 8.24041 12.8255 -3.83935e-06 24.1421 -3.83935e-06C26.8455 -3.83935e-06 30.2405 0.75485 32.881 2.01293C33.6355 2.45325 33.9498 3.01938 33.9498 3.71132C33.9498 4.59197 31.938 11.4485 31.7494 11.9517C31.5608 12.5808 30.9321 12.8324 30.3034 12.8324C29.5489 13.0211 27.8514 12.3921 26.4683 12.3921Z" transform="translate(188.907 250.415)" fill="#A2A1A1"/>
<path d="M13.5799 45.8446C6.7271 43.2027 2.13758 37.6671 2.20045 28.7348C2.20045 25.4009 3.70934 16.2169 4.33804 12.883L4.4009 12.4427C4.4009 12.0024 4.02368 11.8137 3.7722 11.8137C3.58359 11.8137 2.70342 11.7508 2.70342 11.7508C1.82324 11.7508 1.00592 10.8072 1.00592 9.80074V5.8378C1.00592 4.51682 1.00592 3.00712 1.00592 2.25228C1.00592 1.49743 1.00593 1.24581 1.13167 0.67968C1.13167 0.553872 1.19452 0.365153 1.25739 0.239345C1.32026 0.0506338 1.06878 -0.0751662 0.943044 0.0506415C0.440083 0.553872 0.18861 1.30871 0.12574 2.12646C0 3.19583 -7.67457e-06 9.80074 -7.67457e-06 9.80074C0.125732 11.3733 1.19454 12.6943 2.70342 12.6943H3.20637C3.20637 12.6943 3.33212 12.6943 3.33212 12.7572C3.26925 13.0088 3.20637 13.5121 3.1435 13.8895C2.45193 17.3492 0.817311 25.7783 1.06879 30.8735C1.44601 37.8558 5.6583 44.5237 12.9512 46.5995C14.0829 46.914 15.0888 46.914 15.7804 46.6624C15.969 46.5995 15.8433 46.285 15.6547 46.285C15.0888 46.285 14.523 46.1591 13.5799 45.8446Z" transform="translate(219.462 270.871)" fill="#A2A1A1"/>
<path d="M0.0628739 0.314527C0.0628739 0.440335 0 0.566131 0 0.754842C0 0.943554 0.125732 0.943565 0.188603 0.943565C0.251473 0.943565 4.90386 0.943565 4.90386 0.943565C5.6583 0.943565 6.34988 0.69195 6.91571 0.314527C7.04145 0.188719 7.10432 7.67869e-06 6.66423 7.67869e-06C6.22414 7.67869e-06 0.502953 7.67869e-06 0.502953 7.67869e-06C0.502953 7.67869e-06 0.125744 7.68619e-06 0.0628739 0.314527Z" transform="translate(241.278 282.685)" fill="#A2A1A1"/>
<path d="M4.71525 0.267971C4.77812 0.0792593 4.65239 -0.0465445 4.52665 0.0163593C4.14943 0.330879 3.83508 0.771205 3.70934 1.27444C2.9549 3.22446 1.50887 7.56482 -7.67457e-06 12.9116C-7.67457e-06 13.0375 0.0628701 13.2262 0.12574 13.2262C0.25148 13.2262 0.31435 13.2262 0.440091 13.2262C0.565831 13.2262 0.754445 13.0375 0.817315 12.7229C1.50889 10.5842 3.89794 2.4067 4.71525 0.267971Z" transform="translate(226.692 254.487)" fill="#A2A1A1"/>
<path d="M25.5252 27.489H18.9239C17.8551 27.489 17.2893 28.2438 17.0378 29.1245C15.5918 35.9181 14.523 41.5794 14.523 43.9069C14.523 47.744 15.969 49.8198 19.364 51.4553C19.9298 51.707 20.3699 52.2102 20.3699 53.0279C20.3699 53.2796 20.307 53.5941 20.1813 53.7828C19.1754 55.8586 17.4779 58.9409 15.6547 61.0796C15.0888 61.6458 14.3972 61.9603 13.5799 61.9603C13.1398 61.9603 12.574 61.7716 12.574 61.7716C5.15535 59.3812 1.06879 53.0279 1.06879 46.1714C1.06879 40.2585 3.58359 28.9358 3.58359 28.4325C3.58359 27.8035 3.20637 27.3632 2.57767 27.3632H1.69749C0.817307 27.3632 0.0628778 26.6083 7.67457e-06 25.6648V21.8276C7.67457e-06 20.4438 -7.67738e-06 19.1857 0.0628624 18.1792C0.125732 17.2986 0.817303 16.355 1.94896 16.2921L5.15534 16.0405C6.22413 15.9776 6.60136 15.2227 6.85284 14.3421C8.42459 8.61783 10.0592 3.52261 10.9394 1.25807C11.1909 0.440319 11.9453 -7.67869e-06 12.7626 -7.67869e-06C15.2774 -7.67869e-06 20.0556 1.6355 22.3189 2.64196C23.0733 2.89358 23.5134 3.45971 23.5134 4.21456C23.5134 5.78715 20.6843 13.2727 20.6843 14.5937C20.6843 15.2227 21.0615 15.7889 21.753 15.8518C23.5763 15.8518 25.5881 15.8518 26.7198 15.9147C27.9143 15.9776 28.3544 16.984 28.3544 17.9905V18.7454C28.3544 21.0099 28.1029 24.0922 27.7886 25.9164C27.5371 26.8599 26.594 27.489 25.5252 27.489Z" transform="translate(222.543 253.497)" fill="#A2A1A1"/>
<path d="M11.6938 21.2672C6.78997 16.801 2.64054 5.91863 0.628697 0.25728L0.565823 0.0685759C0.502953 -0.0572318 0.314343 0.00567588 0.251473 0.131484C0.188603 0.634714 0.0628662 1.07503 -3.83729e-06 1.57826C-3.83729e-06 1.70407 0 2.0186 0.0628701 2.08151C3.77221 12.1461 7.41866 18.8768 10.9394 22.0849C11.7567 22.7769 12.6369 23.0914 13.5799 23.0914C14.4601 23.0914 14.9631 22.8398 15.0888 22.7769C15.2774 22.714 15.466 22.5882 15.6546 22.5253C15.8433 22.3994 15.8433 22.2107 15.6546 22.1478L15.466 22.2107C14.5859 22.5882 13.2656 22.5882 11.6938 21.2672Z" transform="translate(284.281 295.071)" fill="#A2A1A1"/>
<path d="M2.57768 58.6785C1.57176 58.2382 1.19453 57.4204 1.19453 56.4769C1.19453 55.7849 1.25741 55.0301 1.32028 54.2752C1.76037 40.8138 7.9845 9.7393 11.5681 0.177919C11.631 0.0521112 11.5052 -0.0737041 11.3795 0.0521036C11.0651 0.366623 10.7508 0.744057 10.5622 1.18438C6.97857 9.73931 0.314354 43.1412 3.83729e-06 56.5398C3.83729e-06 58.0495 0.754437 59.2446 2.07471 59.8107C3.01776 60.1882 9.61913 62.3898 11.9453 62.3898C12.574 62.3898 13.1399 62.2011 13.5799 61.8237C13.7057 61.7608 13.5799 61.5092 13.3913 61.5092C10.8136 61.5721 3.52073 59.0559 2.57768 58.6785Z" transform="translate(264.603 255.961)" fill="#A2A1A1"/>
<path d="M49.6045 8.80654C49.6045 9.24686 49.353 9.68719 48.9758 10.0646C45.3293 13.5872 37.0934 23.2115 29.5489 31.0745C29.1717 31.4519 28.9202 31.8922 28.9202 32.4584C28.9202 32.8987 29.1717 33.339 29.1717 33.339C32.8811 40.0697 37.7849 48.6247 41.8086 52.0844C42.1858 52.4618 42.4373 52.9021 42.4373 53.3424C42.4373 53.7199 42.2487 54.0973 41.9972 54.3489C39.7968 56.3618 35.836 59.2554 33.0697 60.5135C33.0697 60.5135 32.6924 60.7022 32.0637 60.7022C31.3093 60.7022 30.6806 60.4506 30.1776 59.9473C25.2738 55.4812 21.1243 44.5988 19.1125 38.9375C18.861 38.1197 18.2952 37.4907 17.415 37.4907H16.7863C15.969 37.4907 15.4032 38.2455 15.2146 39.1262C13.9572 45.7311 13.0141 52.6505 12.1968 59.3183C12.1339 60.199 11.4424 60.7022 10.7508 60.7022C8.73895 60.7022 2.5148 58.6893 1.38313 58.249C0.377213 57.8086 3.83729e-06 56.9909 3.83729e-06 56.0473C0.251484 42.7746 6.91572 9.62428 10.4364 1.19517C10.8137 0.377419 11.5052 0 12.2597 0C13.8943 0 19.6783 1.6355 22.1303 2.45325C22.8847 2.70486 23.3248 3.3339 23.3248 4.08875C23.3248 4.27746 23.2619 4.52908 23.2619 4.52908C21.8159 8.55493 19.9298 15.9776 17.9809 25.1615C17.9809 25.1615 17.918 25.6019 17.918 25.7906C17.918 26.3567 18.1694 26.5454 18.6724 26.5454C19.4268 26.5454 20.2442 25.9793 20.7471 25.3502C27.4742 17.4244 35.4587 5.78716 39.2938 1.06937C39.671 0.629046 40.174 0.314519 40.7398 0.314519C41.117 0.314519 41.5571 0.377419 41.8086 0.566131C43.8205 2.01292 46.9639 4.9065 49.1644 7.54846C49.4159 7.98879 49.6045 8.36621 49.6045 8.80654Z" transform="translate(267.746 254.881)" fill="#A2A1A1"/>
<path d="M2.70341 43.9575C1.69748 43.5172 1.2574 42.6994 1.2574 41.7559C1.2574 41.1268 1.25741 40.4349 1.32028 39.6172C1.50889 31.3139 5.6583 8.29104 8.11024 0.239353C8.17311 0.0506415 7.9845 -0.0751585 7.79589 0.0506491C7.41867 0.428072 7.16719 0.805495 6.97858 1.30873C4.52665 8.85719 0 33.8929 0 41.7559C0 43.2027 0.754437 44.3979 2.13758 45.0269C3.83507 45.7817 9.99635 47.4801 11.6938 47.4801C12.3225 47.4801 12.8884 47.3543 13.3285 46.914C13.5171 46.7253 13.4542 46.5366 13.2656 46.5366C10.8765 46.4737 5.59543 45.1527 2.70341 43.9575Z" transform="translate(312.007 270.682)" fill="#A2A1A1"/>
<path d="M10.7508 13.4252C3.7722 13.6768 1.38314 9.46229 1.13166 5.93967C1.00592 4.05256 1.32026 2.22834 1.94896 0.467029C2.13757 -0.0991059 1.94898 -0.161998 1.57176 0.341232C0.565838 1.91383 7.67457e-06 3.61223 7.67457e-06 5.37354C7.67457e-06 9.39939 1.88609 12.3559 5.09247 13.6139C6.16126 14.0543 7.3558 14.243 8.73894 14.3059H8.86467C10.5622 14.3059 12.0711 13.9914 13.3913 13.4252C13.7685 13.2365 13.7057 13.1107 13.3285 13.1736C12.5111 13.2994 11.631 13.3623 10.7508 13.4252Z" transform="translate(319.677 254.037)" fill="#A2A1A1"/>
<path d="M10.4993 65.7345C9.05328 65.7345 3.08063 64.099 1.44601 63.3442C0.440087 62.9038 3.83729e-06 62.0861 3.83729e-06 61.1425C3.83729e-06 53.5312 4.46378 28.6212 6.91571 21.0728C7.16719 20.255 8.11024 19.626 9.11617 19.626C10.3736 19.626 15.8433 20.8841 18.4838 21.8905C19.2382 22.1422 19.7412 22.7083 19.7412 23.526C19.7412 23.7147 19.6783 24.1551 19.6783 24.1551C16.8492 35.981 13.5799 53.4054 12.3225 64.1619C12.0082 65.0426 11.3166 65.7345 10.4993 65.7345ZM24.0164 7.54846C24.0164 12.3921 20.6842 15.7889 15.2146 15.7889C9.93346 15.7889 7.60729 12.2663 7.60729 8.0517C7.60729 4.8436 9.61912 2.39034 11.5052 0.880646C12.1339 0.440319 13.5171 -3.83935e-06 14.3972 -3.83935e-06C18.7353 -3.83935e-06 24.0164 2.20163 24.0164 7.54846Z" transform="translate(315.213 249.786)" fill="#A2A1A1"/>
<path d="M4.90386 30.9397C2.45193 27.8574 1.19453 23.9574 1.19453 18.9251C1.19453 11.8169 3.08063 5.02332 5.53256 0.431344C5.78404 -0.0718863 5.53256 -0.134802 5.28108 0.242621C1.8861 5.84106 0 12.6347 0 18.988C0 24.209 1.32026 28.3606 3.96081 31.6945C7.67014 36.4123 15.7804 38.6769 20.2442 38.8656C21.9417 38.9285 23.0104 38.6769 24.7079 38.1736C25.148 38.0478 25.0223 37.7333 24.3936 37.922C23.3248 38.1737 22.6961 38.1736 21.6273 38.1736C15.3403 37.8591 7.85875 34.7139 4.90386 30.9397Z" transform="translate(333.697 279.36)" fill="#A2A1A1"/>
<path d="M11.5681 10.6814C10.3107 10.933 6.5385 10.933 4.46378 10.933C4.46378 10.933 3.14351 10.933 2.51481 10.8701C1.44602 10.8072 1.00592 9.92654 1.19453 8.60556C1.44601 6.71844 2.45193 2.94422 2.32619 1.49743C2.32619 1.05711 2.20044 0.553876 2.01183 0.239357C1.88609 0.0506453 1.69748 -0.0751739 1.38313 0.0506338C1.25739 0.113538 1.0688 0.302249 1.00593 0.365153C0.943059 0.428057 0.880185 0.553864 0.943055 0.679672C1.0688 0.868384 1.13166 1.30872 1.13166 2.06356C1.13166 3.00712 0.691578 5.02004 0.377228 6.46683C0.0628777 7.85072 3.83728e-06 8.79427 3.83728e-06 9.17169C3.83728e-06 10.4927 0.691575 11.7508 2.20046 11.8137C3.70934 11.8766 8.42459 11.6879 9.93347 11.562C10.5622 11.4991 11.128 11.2475 11.631 10.933C11.8196 10.8072 11.6938 10.6814 11.5681 10.6814Z" transform="translate(356.393 281.753)" fill="#A2A1A1"/>
<path d="M22.5075 20.255C22.5075 19.5002 23.702 15.1598 23.702 13.4614C23.702 11.763 23.2619 10.6308 22.0045 10.6308C17.9808 10.6308 12.9512 20.1921 12.9512 27.5519C12.9512 32.0181 14.9631 34.7229 18.2952 34.7229C21.5016 34.7229 24.8965 33.4648 27.4742 32.0181C27.4742 32.0181 27.8514 31.8293 28.2287 31.8293C28.8574 31.8293 29.2346 32.0809 29.6118 32.71C30.2405 33.9052 32.0009 37.6165 32.0009 38.8746C32.0009 39.881 31.6237 40.573 31.1207 41.1391C27.8515 44.0327 23.5763 46.6746 18.4838 46.6746C15.466 46.6746 7.10432 44.2214 3.70934 39.881C1.25741 36.7988 7.67457e-06 32.8987 7.67457e-06 27.8664C7.67457e-06 15.1598 8.36172 -7.67869e-06 18.7353 -7.67869e-06C22.256 -7.67869e-06 36.276 4.8436 36.276 12.2034C36.276 14.405 34.5786 18.7453 33.6355 20.1921C33.1954 20.947 32.441 21.4502 31.435 21.576C29.989 21.6389 26.154 21.6389 24.0792 21.6389C23.0733 21.5131 22.5075 20.947 22.5075 20.255Z" transform="translate(336.966 268.909)" fill="#A2A1A1"/>
<path d="M9.61911 14.1415C8.80179 13.9528 8.11025 13.5754 7.7959 13.2608C5.28109 10.8076 2.32619 4.76884 0.440091 0.113951C0.37722 -0.0747606 0.188595 -0.0118721 0.188595 0.176839C0.125725 0.617166 0.0628624 1.0575 -7.67457e-06 1.49782C-7.67457e-06 1.62363 1.53501e-05 2.18977 0.0628854 2.25268C1.88612 6.59304 4.58953 11.8141 6.97859 14.1415C7.67016 14.8334 8.61318 15.2109 9.61911 15.2109C10.3735 15.2109 11.128 14.8963 11.2538 14.8334C11.3795 14.7705 11.5052 14.7076 11.631 14.6447C11.8824 14.5189 11.8196 14.3302 11.5052 14.3302C11.0022 14.3302 10.4364 14.3302 9.61911 14.1415Z" transform="translate(390.469 303.015)" fill="#A2A1A1"/>
<path d="M10.9394 63.6834C9.55627 63.4318 3.96082 61.7962 2.64055 61.2301C1.44602 60.664 1.00593 59.6575 1.00593 58.7769C1.00593 58.2736 1.0688 57.2043 1.0688 57.2043C1.50889 42.9251 8.6132 9.90059 12.574 0.150493C12.6369 0.0246852 12.5111 -0.0382264 12.4483 0.0246775C12.071 0.339197 11.7567 0.779524 11.5681 1.28275C7.67017 10.1522 0.440091 44.1832 0 58.6511C0 60.7898 1.19453 61.7962 2.13758 62.2366C3.70933 62.9285 9.68199 64.6898 11.631 64.6898C12.3225 64.6898 12.8884 64.4382 13.3913 64.1237C13.5171 64.0608 13.5171 63.8092 13.2027 63.8721C12.6369 64.0608 12.2597 63.9979 10.9394 63.6834Z" transform="translate(372.048 253.284)" fill="#A2A1A1"/>
<path d="M26.594 40.8246C26.594 41.202 26.7827 41.4536 26.9713 41.7052C29.8004 46.3601 33.5098 51.5182 36.5904 54.5376C36.9676 54.915 37.2191 55.4183 37.2191 55.9215C37.2191 56.2989 37.0305 56.7393 36.779 56.9909C33.9498 59.6957 30.2405 61.9603 27.9772 62.9667C27.9772 62.9667 27.3485 63.2183 26.7826 63.2183C26.0282 63.2183 25.3995 62.9667 24.9594 62.4635C22.1303 59.7586 18.6724 52.3989 16.9749 47.6811C16.7234 46.8005 16.2205 45.9827 15.5289 45.9827C14.7116 45.9827 14.2715 46.7376 14.0829 47.6811C13.3285 52.336 12.6369 57.1167 12.0711 61.6458C12.0082 62.5264 11.2537 63.0926 10.4364 63.0926C8.73893 63.0926 2.89202 61.3941 1.446 60.7022C0.251473 60.1361 0 59.1296 0 58.2489C0.440091 44.2843 7.60727 10.1275 11.5052 1.25807C11.7567 0.503223 12.5111 -7.67869e-06 13.3913 -7.67869e-06C14.7745 -7.67869e-06 21.6273 2.07583 23.0104 2.64196C23.8277 2.89358 24.205 3.64843 24.205 4.34037C24.205 4.59199 23.9535 5.34682 23.9535 5.34682C22.0674 10.6307 19.3011 20.6325 16.5977 33.7794C16.5977 33.7794 16.5348 34.1568 16.5348 34.3455C16.5348 34.9116 16.7863 35.1633 17.1635 35.1633C17.7294 35.1633 18.4209 34.4084 19.0496 33.7165C23.7649 28.2438 29.6747 21.2615 32.1895 18.1163C32.5667 17.676 33.0697 17.3615 33.6355 17.3615C34.2013 17.3615 34.6414 17.7389 34.6414 17.7389C36.4646 18.997 39.7339 22.0792 41.4314 24.3438C41.6829 24.7212 41.8086 25.1615 41.8086 25.539C41.8086 26.1051 41.5571 26.5454 41.0542 26.9858C38.5394 29.1874 32.6924 34.7229 27.3485 39.3149C26.9713 39.8181 26.594 40.2585 26.594 40.8246Z" transform="translate(375.191 252.239)" fill="#A2A1A1"/>
</svg>
